#N canvas 0 23 1920 1035 12;
#X declare -path /home/pi/Pd;
#X msg 154 792 disconnect;
#X obj 31 306 hsl 128 15 1 300 0 1 empty empty BPM -2 -8 0 10 -159808
-1 -1 3780 1;
#X obj 185 591 dac~;
#X obj 28 45 loadbang;
#X msg 538 100 \; pd dsp 1;
#X obj 286 53 r pd-dsp-started;
#X obj 286 76 delay 1 1 sec;
#X obj 538 77 delay 1 5 sec;
#X msg 681 83 \; pd dsp 0, f 9;
#X obj 86 801 tgl 15 0 empty empty empty 17 7 0 10 -262144 -1 -1 1
1;
#X obj 21 742 packOSC;
#X obj 86 774 udpsend;
#X obj 29 1169 dumpOSC 8888;
#X text 27 1132 Incoming OSC port 8888;
#X obj 176 272 route /tempo/ms;
#X msg 28 379 /tempo/ms \$1;
#X obj 28 242 r boot;
#X obj 86 714 r boot;
#X obj 538 53 r boot;
#X text 536 26 Start DSP;
#X text 19 671 OSC messages to network;
#X obj 91 1192 s OSCin;
#X text 26 21 Boot procedure;
#X obj 28 405 s OSCout;
#X obj 21 714 r OSCout;
#X obj 29 1280 print OSCin;
#N canvas 0 54 450 300 ms2bpm 0;
#X obj 76 39 inlet;
#X obj 76 156 outlet;
#X obj 76 72 t b f;
#X obj 76 120 /;
#X msg 76 96 60000;
#X connect 0 0 2 0;
#X connect 2 0 4 0;
#X connect 2 1 3 1;
#X connect 3 0 1 0;
#X connect 4 0 3 0;
#X restore 176 297 pd ms2bpm;
#X floatatom 176 324 5 0 0 0 - - -;
#X obj 154 768 r disconnect;
#N canvas 0 54 450 300 bpm2ms 0;
#X obj 33 17 inlet;
#X obj 33 127 outlet;
#X msg 33 74 60000;
#X obj 33 99 /, f 5;
#X obj 33 49 t b f;
#X connect 0 0 4 0;
#X connect 2 0 3 0;
#X connect 3 0 1 0;
#X connect 4 0 2 0;
#X connect 4 1 3 1;
#X restore 28 328 pd bpm2ms;
#X floatatom 28 353 5 0 0 0 - - -;
#X obj 73 352 s metroms;
#X text 25 205 Tempo control;
#X msg 26 584 /metro/on \$1;
#X obj 286 100 s bootdelayed;
#X text 17 824 Connection established;
#X obj 26 618 s OSCout;
#X text 23 461 Game control;
#X obj 176 242 r OSCin;
#N canvas 0 54 450 300 oscquitter 0;
#X obj 104 17 r OSCin;
#X obj 191 227 outlet;
#X obj 104 108 bng 15 250 50 0 empty empty empty 17 7 0 10 -262144
-1 -1;
#X msg 104 215 \; pd quit;
#X obj 104 131 t b b;
#X obj 104 179 delay 1 1 sec;
#X obj 104 54 route /quit;
#X obj 104 77 sel 1;
#X obj 110 155 s disconnect;
#X text 251 227 to pd dsp 0;
#X connect 0 0 6 0;
#X connect 2 0 4 0;
#X connect 4 0 5 0;
#X connect 4 0 8 0;
#X connect 4 1 1 0;
#X connect 5 0 3 0;
#X connect 6 0 7 0;
#X connect 7 0 2 0;
#X restore 681 57 pd oscquitter;
#X text 679 25 Stop DSP;
#X text 232 589 audio out;
#X obj 26 534 tgl 15 0 empty empty empty 17 7 0 10 -262144 -1 -1 0
1;
#X obj 50 534 tgl 15 0 empty empty empty 17 7 0 10 -262144 -1 -1 0
1;
#X msg 50 554 /start/all \$1;
#X obj 99 488 r stopall;
#X msg 99 516 0;
#X obj 81 242 r metroon;
#X obj 26 488 r metroon;
#X obj 90 94 print Boot;
#X obj 4 47 bng 15 250 50 0 empty empty empty 17 7 0 10 -262144 -1
-1;
#N canvas 0 23 773 529 (subpatch) 0;
#X array score_102 33 float 5;
#A 0 0 0 0 0 0 0 0 0 0 0 0 0 0 0 0 0 0 0 0 0 0 0 0 0 0 0 0 0 0 0 0
0 0;
#X coords 0 100 32 0 200 140 1;
#X restore 859 662 graph;
#X obj 28 74 s boot;
#X text 1083 731 Trial number;
#N canvas 0 23 773 529 (subpatch) 0;
#X array score_103 33 float 5;
#A 0 0 0 0 0 0 0 0 0 0 0 0 0 0 0 0 0 0 0 0 0 0 0 0 0 0 0 0 0 0 0 0
0 0;
#X coords 0 100 32 0 200 140 1;
#X restore 630 832 graph;
#N canvas 0 23 773 529 (subpatch) 0;
#X array score_101 33 float 5;
#A 0 0 0 0 0 0 0 0 0 0 0 0 0 0 0 0 0 0 0 0 0 0 0 0 0 0 0 0 0 0 0 0
0 0;
#X coords 0 100 32 0 200 140 1;
#X restore 629 662 graph;
#N canvas 0 23 773 529 (subpatch) 0;
#X array score_104 33 float 5;
#A 0 0 0 0 0 0 0 0 0 0 0 0 0 0 0 0 0 0 0 0 0 0 0 0 0 0 0 0 0 0 0 0
0 0;
#X coords 0 100 32 0 200 140 1;
#X restore 860 832 graph;
#N canvas 95 75 765 589 arraySetup 0;
#X obj 145 85 score-arraysetup;
#X obj 15 85 score-arraysetup;
#X msg 15 55 symbol score_101;
#X msg 145 55 symbol score_102;
#X obj 14 156 score-arraysetup;
#X msg 14 126 symbol score_103;
#X obj 145 156 score-arraysetup;
#X msg 145 126 symbol score_104;
#X obj 15 13 r boot;
#X msg 42 394 \; \$1 xticks 0 1 4;
#X obj 15 293 t s s;
#X msg 15 213 symbol trueMisses;
#X msg 146 213 symbol falsePositives;
#X obj 15 261 symbol;
#X msg 15 324 \; \$1 resize 4;
#X msg 42 461 \; \$1 xlabel -0.1 1 2 3 4;
#X msg 42 426 \; \$1 yticks 0 10 1;
#X msg 287 397 \; \$1 xticks 0 1 4;
#X obj 260 296 t s s;
#X obj 260 264 symbol;
#X msg 260 327 \; \$1 resize 4;
#X msg 287 464 \; \$1 xlabel -0.1 1 2 3 4;
#X msg 287 363 \; \$1 bounds 0 4 4 0;
#X msg 287 429 \; \$1 yticks 0 2 1;
#X msg 287 501 \; \$1 ylabel -0.1 0 1 2 3 4;
#X msg 42 360 \; \$1 bounds 0 4 4 0;
#X msg 42 498 \; \$1 ylabel -0.1 0 1 2 3 4;
#X connect 2 0 1 0;
#X connect 3 0 0 0;
#X connect 5 0 4 0;
#X connect 7 0 6 0;
#X connect 8 0 7 0;
#X connect 8 0 5 0;
#X connect 8 0 3 0;
#X connect 8 0 2 0;
#X connect 8 0 11 0;
#X connect 8 0 12 0;
#X connect 10 0 14 0;
#X connect 10 1 25 0;
#X connect 10 1 26 0;
#X connect 10 1 16 0;
#X connect 10 1 9 0;
#X connect 10 1 15 0;
#X connect 11 0 13 0;
#X connect 12 0 19 0;
#X connect 13 0 10 0;
#X connect 18 0 20 0;
#X connect 18 1 22 0;
#X connect 18 1 24 0;
#X connect 18 1 23 0;
#X connect 18 1 17 0;
#X connect 18 1 21 0;
#X connect 19 0 18 0;
#X restore 390 363 pd arraySetup;
#N canvas 448 83 662 691 scoreTablewriter 0;
#X text 142 91 Index;
#X text 19 91 Value;
#X floatatom 67 91 5 0 100 0 - - -;
#X floatatom 190 92 5 0 17 0 - - -;
#X obj 67 30 r OSCin;
#X text 142 191 Index;
#X text 19 191 Value;
#X floatatom 67 191 5 0 100 0 - - -;
#X floatatom 190 192 5 0 17 0 - - -;
#X text 142 292 Index;
#X text 19 292 Value;
#X floatatom 67 292 5 0 100 0 - - -;
#X floatatom 190 293 5 0 17 0 - - -;
#X obj 67 318 tabwrite score_103;
#X obj 67 259 route /game/clap/103/score /game/clap/103/index;
#X text 142 391 Index;
#X text 19 391 Value;
#X floatatom 67 391 5 0 100 0 - - -;
#X floatatom 190 392 5 0 17 0 - - -;
#X obj 67 58 route /game/clap/101/score /game/clap/101/index;
#X obj 67 117 tabwrite score_101;
#X obj 67 158 route /game/clap/102/score /game/clap/102/index;
#X obj 67 217 tabwrite score_102;
#X obj 67 358 route /game/clap/104/score /game/clap/104/index;
#X obj 67 417 tabwrite score_104;
#X floatatom 264 485 5 0 0 0 - - -;
#X obj 264 508 t b i;
#X msg 264 533 0;
#X obj 264 393 r boot;
#X obj 332 393 r scorereset;
#X msg 264 426 0 \, 1 \, 2 \, 3 \, 4 \, 5 \, 6 \, 7 \, 8 \, 9 \, 10
\, 11 \, 12 \, 13 \, 14 \, 15 \, 16 \, 17 \, 18 \, 19 \, 20 \, 21 \,
22 \, 23 \, 24 \, 25 \, 26 \, 27 \, 28 \, 29 \, 30 \, 31 \, 32;
#X connect 2 0 20 0;
#X connect 3 0 20 1;
#X connect 4 0 14 0;
#X connect 4 0 19 0;
#X connect 4 0 21 0;
#X connect 4 0 23 0;
#X connect 7 0 22 0;
#X connect 8 0 22 1;
#X connect 11 0 13 0;
#X connect 12 0 13 1;
#X connect 14 0 11 0;
#X connect 14 1 12 0;
#X connect 17 0 24 0;
#X connect 18 0 24 1;
#X connect 19 0 2 0;
#X connect 19 1 3 0;
#X connect 21 0 7 0;
#X connect 21 1 8 0;
#X connect 23 0 17 0;
#X connect 23 1 18 0;
#X connect 25 0 26 0;
#X connect 26 0 27 0;
#X connect 26 1 24 1;
#X connect 26 1 20 1;
#X connect 26 1 22 1;
#X connect 26 1 13 1;
#X connect 27 0 24 0;
#X connect 27 0 20 0;
#X connect 27 0 22 0;
#X connect 27 0 13 0;
#X connect 28 0 30 0;
#X connect 29 0 30 0;
#X connect 30 0 25 0;
#X restore 682 363 pd scoreTablewriter;
#N canvas 308 137 1096 713 scoreTextfileWriter 0;
#X obj 23 41 r gameon;
#X obj 23 64 sel 0;
#X obj 23 90 bng 15 250 50 0 empty empty empty 17 7 0 10 -262144 -1
-1;
#X msg 62 337 \; score_103 write \$1;
#X msg 94 313 symbol ./scores/0_0_0_metronome_0_pretest_103.txt;
#X obj 23 251 r gameon;
#X obj 23 274 sel 0;
#X obj 23 300 bng 15 250 50 0 empty empty empty 17 7 0 10 -262144 -1
-1;
#X obj 567 46 r gameon;
#X obj 567 69 sel 0;
#X obj 567 95 bng 15 250 50 0 empty empty empty 17 7 0 10 -262144 -1
-1;
#X obj 576 254 r gameon;
#X obj 576 277 sel 0;
#X obj 576 303 bng 15 250 50 0 empty empty empty 17 7 0 10 -262144
-1 -1;
#X msg 94 103 symbol ./scores/0_0_0_metronome_0_pretest_101.txt;
#X msg 638 108 symbol ./scores/0_0_0_metronome_0_pretest_102.txt;
#X msg 646 316 symbol ./scores/0_0_0_metronome_0_pretest_104.txt;
#X msg 615 340 \; score_104 write \$1;
#X msg 606 133 \; score_102 write \$1;
#X msg 62 127 \; score_101 write \$1;
#X obj 28 427 r gameon;
#X obj 28 450 sel 0;
#X obj 28 476 bng 15 250 50 0 empty empty empty 17 7 0 10 -262144 -1
-1;
#X msg 99 489 symbol ./scores/0_0_0_metronome_0_pretest_TrueMisses.txt
;
#X msg 99 516 \; trueMisses write \$1;
#X obj 570 429 r gameon;
#X obj 570 452 sel 0;
#X obj 570 478 bng 15 250 50 0 empty empty empty 17 7 0 10 -262144
-1 -1;
#X msg 641 491 symbol ./scores/0_0_0_metronome_0_pretest_FalsePositives.txt
;
#X msg 641 529 \; falsePositives write \$1;
#N canvas 593 81 748 734 filenamegenerator 0;
#X obj 222 616 outlet;
#X floatatom 182 83 5 0 0 0 - - -;
#X floatatom 222 148 5 0 0 0 - - -;
#X msg 242 216 set \$1;
#X obj 222 242 makefilename;
#X text 178 24 Trial number;
#X text 273 154 BPM;
#X msg 222 267 set \$1;
#X obj 222 291 makefilename;
#X text 33 43 audiofile;
#X msg 35 289 symbol 0_metronome;
#X msg 53 267 symbol 1_simplebeat;
#X msg 72 245 symbol 2_syncobeat;
#X msg 89 222 symbol 3_jungle;
#X obj 34 192 sel 0 1 2 3;
#X floatatom 34 134 5 0 0 0 - - -;
#X msg 222 316 set \$1;
#X obj 222 542 makefilename;
#X msg 182 500 symbol 0_pretest;
#X msg 242 589 symbol ./scores/0_0_0_metronome_0_pretest_101.txt;
#X obj 182 116 t b b b f;
#X obj 182 54 r trialnr;
#X obj 266 130 r bpm;
#X obj 34 72 r OSCin;
#X obj 34 98 route /soundselect;
#X obj 182 428 sel 0 1 2;
#X msg 202 475 symbol 1_game;
#X msg 222 454 symbol 2_posttest;
#X floatatom 182 404 5 0 0 0 - - -;
#X obj 190 180 t b f;
#X msg 222 566 set symbol \$1.txt;
#X obj 192 353 r OSCin;
#X obj 192 377 route /gametype;
#X obj 242 187 makefilename ./scores/%d_%%d_%%%%s_%%%%%%%%s_101;
#X obj 355 81 bng 15 250 50 0 empty empty empty 17 7 0 10 -262144 -1
-1;
#X obj 354 39 r gameon;
#X connect 1 0 20 0;
#X connect 2 0 29 0;
#X connect 3 0 4 0;
#X connect 4 0 7 0;
#X connect 7 0 8 0;
#X connect 8 0 16 0;
#X connect 10 0 8 0;
#X connect 11 0 8 0;
#X connect 12 0 8 0;
#X connect 13 0 8 0;
#X connect 14 0 10 0;
#X connect 14 1 11 0;
#X connect 14 2 12 0;
#X connect 14 3 13 0;
#X connect 15 0 14 0;
#X connect 16 0 17 0;
#X connect 17 0 30 0;
#X connect 18 0 17 0;
#X connect 20 0 28 0;
#X connect 20 1 15 0;
#X connect 20 2 2 0;
#X connect 20 3 33 0;
#X connect 21 0 1 0;
#X connect 22 0 2 0;
#X connect 23 0 24 0;
#X connect 24 0 15 0;
#X connect 25 0 18 0;
#X connect 25 1 26 0;
#X connect 25 2 27 0;
#X connect 26 0 17 0;
#X connect 27 0 17 0;
#X connect 28 0 25 0;
#X connect 29 1 4 0;
#X connect 30 0 19 0;
#X connect 30 0 0 0;
#X connect 31 0 32 0;
#X connect 32 0 28 0;
#X connect 33 0 3 0;
#X connect 34 0 1 0;
#X connect 34 0 15 0;
#X connect 34 0 28 0;
#X connect 34 0 2 0;
#X connect 35 0 34 0;
#X restore 94 67 pd filenamegenerator;
#N canvas 599 97 748 734 filenamegenerator 0;
#X obj 222 407 outlet;
#X floatatom 182 83 5 0 0 0 - - -;
#X floatatom 222 139 5 0 0 0 - - -;
#X msg 242 207 set \$1;
#X obj 222 233 makefilename;
#X text 178 24 Trial number;
#X text 273 145 BPM;
#X msg 222 258 set \$1;
#X obj 222 282 makefilename;
#X text 33 43 audiofile;
#X msg 35 289 symbol 0_metronome;
#X msg 53 267 symbol 1_simplebeat;
#X msg 72 245 symbol 2_syncobeat;
#X msg 89 222 symbol 3_jungle;
#X obj 34 192 sel 0 1 2 3;
#X floatatom 34 134 5 0 0 0 - - -;
#X msg 222 307 set \$1;
#X obj 222 333 makefilename;
#X msg 33 420 symbol 0_pretest;
#X msg 242 380 symbol ./scores/0_0_0_metronome_0_pretest_102.txt;
#X obj 182 107 t b b b f;
#X obj 182 54 r trialnr;
#X obj 266 121 r bpm;
#X obj 34 72 r OSCin;
#X obj 34 98 route /soundselect;
#X obj 33 348 sel 0 1 2;
#X msg 53 395 symbol 1_game;
#X msg 73 374 symbol 2_posttest;
#X floatatom 33 324 5 0 0 0 - - -;
#X obj 190 171 t b f;
#X msg 222 357 set symbol \$1.txt;
#X obj 242 178 makefilename ./scores/%d_%%d_%%%%s_%%%%%%%%s_102;
#X obj 354 66 bng 15 250 50 0 empty empty empty 17 7 0 10 -262144 -1
-1;
#X obj 354 39 r gameon;
#X connect 1 0 20 0;
#X connect 2 0 29 0;
#X connect 3 0 4 0;
#X connect 4 0 7 0;
#X connect 7 0 8 0;
#X connect 8 0 16 0;
#X connect 10 0 8 0;
#X connect 11 0 8 0;
#X connect 12 0 8 0;
#X connect 13 0 8 0;
#X connect 14 0 10 0;
#X connect 14 1 11 0;
#X connect 14 2 12 0;
#X connect 14 3 13 0;
#X connect 15 0 14 0;
#X connect 16 0 17 0;
#X connect 17 0 30 0;
#X connect 18 0 17 0;
#X connect 20 0 28 0;
#X connect 20 1 15 0;
#X connect 20 2 2 0;
#X connect 20 3 31 0;
#X connect 21 0 1 0;
#X connect 22 0 2 0;
#X connect 23 0 24 0;
#X connect 24 0 15 0;
#X connect 25 0 18 0;
#X connect 25 1 26 0;
#X connect 25 2 27 0;
#X connect 26 0 17 0;
#X connect 27 0 17 0;
#X connect 28 0 25 0;
#X connect 29 1 4 0;
#X connect 30 0 19 0;
#X connect 30 0 0 0;
#X connect 31 0 3 0;
#X connect 32 0 2 0;
#X connect 32 0 28 0;
#X connect 32 0 15 0;
#X connect 32 0 1 0;
#X connect 33 0 32 0;
#X restore 638 77 pd filenamegenerator;
#N canvas 599 97 748 734 filenamegenerator 0;
#X obj 222 407 outlet;
#X floatatom 182 83 5 0 0 0 - - -;
#X floatatom 222 139 5 0 0 0 - - -;
#X msg 242 207 set \$1;
#X obj 222 233 makefilename;
#X text 178 24 Trial number;
#X text 273 145 BPM;
#X msg 222 258 set \$1;
#X obj 222 282 makefilename;
#X text 33 43 audiofile;
#X msg 35 289 symbol 0_metronome;
#X msg 53 267 symbol 1_simplebeat;
#X msg 72 245 symbol 2_syncobeat;
#X msg 89 222 symbol 3_jungle;
#X obj 34 192 sel 0 1 2 3;
#X floatatom 34 134 5 0 0 0 - - -;
#X msg 222 307 set \$1;
#X obj 222 333 makefilename;
#X msg 33 420 symbol 0_pretest;
#X msg 242 380 symbol ./scores/0_0_0_metronome_0_pretest_103.txt;
#X obj 182 107 t b b b f;
#X obj 182 54 r trialnr;
#X obj 266 121 r bpm;
#X obj 34 72 r OSCin;
#X obj 34 98 route /soundselect;
#X obj 33 348 sel 0 1 2;
#X msg 53 395 symbol 1_game;
#X msg 73 374 symbol 2_posttest;
#X floatatom 33 324 5 0 0 0 - - -;
#X obj 190 171 t b f;
#X msg 222 357 set symbol \$1.txt;
#X obj 242 178 makefilename ./scores/%d_%%d_%%%%s_%%%%%%%%s_103;
#X obj 354 66 bng 15 250 50 0 empty empty empty 17 7 0 10 -262144 -1
-1;
#X obj 354 39 r gameon;
#X connect 1 0 20 0;
#X connect 2 0 29 0;
#X connect 3 0 4 0;
#X connect 4 0 7 0;
#X connect 7 0 8 0;
#X connect 8 0 16 0;
#X connect 10 0 8 0;
#X connect 11 0 8 0;
#X connect 12 0 8 0;
#X connect 13 0 8 0;
#X connect 14 0 10 0;
#X connect 14 1 11 0;
#X connect 14 2 12 0;
#X connect 14 3 13 0;
#X connect 15 0 14 0;
#X connect 16 0 17 0;
#X connect 17 0 30 0;
#X connect 18 0 17 0;
#X connect 20 0 28 0;
#X connect 20 1 15 0;
#X connect 20 2 2 0;
#X connect 20 3 31 0;
#X connect 21 0 1 0;
#X connect 22 0 2 0;
#X connect 23 0 24 0;
#X connect 24 0 15 0;
#X connect 25 0 18 0;
#X connect 25 1 26 0;
#X connect 25 2 27 0;
#X connect 26 0 17 0;
#X connect 27 0 17 0;
#X connect 28 0 25 0;
#X connect 29 1 4 0;
#X connect 30 0 19 0;
#X connect 30 0 0 0;
#X connect 31 0 3 0;
#X connect 32 0 1 0;
#X connect 32 0 28 0;
#X connect 32 0 15 0;
#X connect 32 0 2 0;
#X connect 33 0 32 0;
#X restore 94 280 pd filenamegenerator;
#N canvas 599 97 748 734 filenamegenerator 0;
#X obj 222 407 outlet;
#X floatatom 182 83 5 0 0 0 - - -;
#X floatatom 222 139 5 0 0 0 - - -;
#X msg 242 207 set \$1;
#X obj 222 233 makefilename;
#X text 178 24 Trial number;
#X text 273 145 BPM;
#X msg 222 258 set \$1;
#X obj 222 282 makefilename;
#X text 33 43 audiofile;
#X msg 35 289 symbol 0_metronome;
#X msg 53 267 symbol 1_simplebeat;
#X msg 72 245 symbol 2_syncobeat;
#X msg 89 222 symbol 3_jungle;
#X obj 34 192 sel 0 1 2 3;
#X floatatom 34 134 5 0 0 0 - - -;
#X msg 222 307 set \$1;
#X obj 222 333 makefilename;
#X msg 33 420 symbol 0_pretest;
#X msg 242 380 symbol ./scores/0_0_0_metronome_0_pretest_104.txt;
#X obj 182 107 t b b b f;
#X obj 182 54 r trialnr;
#X obj 266 121 r bpm;
#X obj 34 72 r OSCin;
#X obj 34 98 route /soundselect;
#X obj 33 348 sel 0 1 2;
#X msg 53 395 symbol 1_game;
#X msg 73 374 symbol 2_posttest;
#X floatatom 33 324 5 0 0 0 - - -;
#X obj 190 171 t b f;
#X msg 222 357 set symbol \$1.txt;
#X obj 242 178 makefilename ./scores/%d_%%d_%%%%s_%%%%%%%%s_104;
#X obj 354 66 bng 15 250 50 0 empty empty empty 17 7 0 10 -262144 -1
-1;
#X obj 354 39 r gameon;
#X connect 1 0 20 0;
#X connect 2 0 29 0;
#X connect 3 0 4 0;
#X connect 4 0 7 0;
#X connect 7 0 8 0;
#X connect 8 0 16 0;
#X connect 10 0 8 0;
#X connect 11 0 8 0;
#X connect 12 0 8 0;
#X connect 13 0 8 0;
#X connect 14 0 10 0;
#X connect 14 1 11 0;
#X connect 14 2 12 0;
#X connect 14 3 13 0;
#X connect 15 0 14 0;
#X connect 16 0 17 0;
#X connect 17 0 30 0;
#X connect 18 0 17 0;
#X connect 20 0 28 0;
#X connect 20 1 15 0;
#X connect 20 2 2 0;
#X connect 20 3 31 0;
#X connect 21 0 1 0;
#X connect 22 0 2 0;
#X connect 23 0 24 0;
#X connect 24 0 15 0;
#X connect 25 0 18 0;
#X connect 25 1 26 0;
#X connect 25 2 27 0;
#X connect 26 0 17 0;
#X connect 27 0 17 0;
#X connect 28 0 25 0;
#X connect 29 1 4 0;
#X connect 30 0 19 0;
#X connect 30 0 0 0;
#X connect 31 0 3 0;
#X connect 32 0 2 0;
#X connect 32 0 28 0;
#X connect 32 0 15 0;
#X connect 32 0 1 0;
#X connect 33 0 32 0;
#X restore 646 288 pd filenamegenerator;
#N canvas 599 97 748 734 filenamegenerator 0;
#X obj 362 407 outlet;
#X floatatom 322 83 5 0 0 0 - - -;
#X floatatom 362 139 5 0 0 0 - - -;
#X msg 382 207 set \$1;
#X obj 362 233 makefilename;
#X text 318 24 Trial number;
#X text 413 145 BPM;
#X msg 362 258 set \$1;
#X obj 362 282 makefilename;
#X text 33 43 audiofile;
#X msg 35 289 symbol 0_metronome;
#X msg 53 267 symbol 1_simplebeat;
#X msg 72 245 symbol 2_syncobeat;
#X msg 89 222 symbol 3_jungle;
#X obj 34 192 sel 0 1 2 3;
#X floatatom 34 134 5 0 0 0 - - -;
#X msg 362 307 set \$1;
#X obj 362 333 makefilename;
#X msg 33 420 symbol 0_pretest;
#X msg 382 380 symbol ./scores/0_0_0_metronome_0_pretest_TrueMisses.txt
;
#X obj 322 107 t b b b f;
#X obj 322 54 r trialnr;
#X obj 406 121 r bpm;
#X obj 34 72 r OSCin;
#X obj 34 98 route /soundselect;
#X obj 33 348 sel 0 1 2;
#X msg 53 395 symbol 1_game;
#X msg 73 374 symbol 2_posttest;
#X floatatom 33 323 5 0 0 0 - - -;
#X obj 330 171 t b f;
#X msg 362 357 set symbol \$1_TrueMisses.txt;
#X obj 464 65 bng 15 250 50 0 empty empty empty 17 7 0 10 -262144 -1
-1;
#X obj 464 38 r gameon;
#X obj 382 178 makefilename ./scores/%d_%%d_%%%%s_%%%%%%%%s;
#X connect 1 0 20 0;
#X connect 2 0 29 0;
#X connect 3 0 4 0;
#X connect 4 0 7 0;
#X connect 7 0 8 0;
#X connect 8 0 16 0;
#X connect 10 0 8 0;
#X connect 11 0 8 0;
#X connect 12 0 8 0;
#X connect 13 0 8 0;
#X connect 14 0 10 0;
#X connect 14 1 11 0;
#X connect 14 2 12 0;
#X connect 14 3 13 0;
#X connect 15 0 14 0;
#X connect 16 0 17 0;
#X connect 17 0 30 0;
#X connect 18 0 17 0;
#X connect 20 0 28 0;
#X connect 20 1 15 0;
#X connect 20 2 2 0;
#X connect 20 3 33 0;
#X connect 21 0 1 0;
#X connect 22 0 2 0;
#X connect 23 0 24 0;
#X connect 24 0 15 0;
#X connect 25 0 18 0;
#X connect 25 1 26 0;
#X connect 25 2 27 0;
#X connect 26 0 17 0;
#X connect 27 0 17 0;
#X connect 28 0 25 0;
#X connect 29 1 4 0;
#X connect 30 0 19 0;
#X connect 30 0 0 0;
#X connect 31 0 2 0;
#X connect 31 0 28 0;
#X connect 31 0 15 0;
#X connect 31 0 1 0;
#X connect 32 0 31 0;
#X connect 33 0 3 0;
#X restore 98 459 pd filenamegenerator;
#N canvas 599 97 796 734 filenamegenerator 0;
#X obj 362 407 outlet;
#X floatatom 322 83 5 0 0 0 - - -;
#X floatatom 362 139 5 0 0 0 - - -;
#X msg 382 207 set \$1;
#X obj 362 233 makefilename;
#X text 318 24 Trial number;
#X text 413 145 BPM;
#X msg 362 258 set \$1;
#X obj 362 282 makefilename;
#X text 33 43 audiofile;
#X msg 35 289 symbol 0_metronome;
#X msg 53 267 symbol 1_simplebeat;
#X msg 72 245 symbol 2_syncobeat;
#X msg 89 222 symbol 3_jungle;
#X obj 34 192 sel 0 1 2 3;
#X floatatom 34 134 5 0 0 0 - - -;
#X msg 362 307 set \$1;
#X obj 362 333 makefilename;
#X msg 33 420 symbol 0_pretest;
#X msg 382 380 symbol ./scores/0_0_0_metronome_0_pretest_FalsePositives.txt
;
#X obj 322 107 t b b b f;
#X obj 322 54 r trialnr;
#X obj 406 121 r bpm;
#X obj 34 72 r OSCin;
#X obj 34 98 route /soundselect;
#X obj 33 348 sel 0 1 2;
#X msg 53 395 symbol 1_game;
#X msg 73 374 symbol 2_posttest;
#X floatatom 33 323 5 0 0 0 - - -;
#X obj 330 171 t b f;
#X msg 362 357 set symbol \$1_FalsePositives.txt;
#X obj 469 59 bng 15 250 50 0 empty empty empty 17 7 0 10 -262144 -1
-1;
#X obj 469 32 r gameon;
#X obj 382 178 makefilename ./scores/%d_%%d_%%%%s_%%%%%%%%s;
#X connect 1 0 20 0;
#X connect 2 0 29 0;
#X connect 3 0 4 0;
#X connect 4 0 7 0;
#X connect 7 0 8 0;
#X connect 8 0 16 0;
#X connect 10 0 8 0;
#X connect 11 0 8 0;
#X connect 12 0 8 0;
#X connect 13 0 8 0;
#X connect 14 0 10 0;
#X connect 14 1 11 0;
#X connect 14 2 12 0;
#X connect 14 3 13 0;
#X connect 15 0 14 0;
#X connect 16 0 17 0;
#X connect 17 0 30 0;
#X connect 18 0 17 0;
#X connect 20 0 28 0;
#X connect 20 1 15 0;
#X connect 20 2 2 0;
#X connect 20 3 33 0;
#X connect 21 0 1 0;
#X connect 22 0 2 0;
#X connect 23 0 24 0;
#X connect 24 0 15 0;
#X connect 25 0 18 0;
#X connect 25 1 26 0;
#X connect 25 2 27 0;
#X connect 26 0 17 0;
#X connect 27 0 17 0;
#X connect 28 0 25 0;
#X connect 29 1 4 0;
#X connect 30 0 19 0;
#X connect 30 0 0 0;
#X connect 31 0 1 0;
#X connect 31 0 28 0;
#X connect 31 0 15 0;
#X connect 31 0 2 0;
#X connect 32 0 31 0;
#X connect 33 0 3 0;
#X restore 641 462 pd filenamegenerator;
#X connect 0 0 1 0;
#X connect 1 0 2 0;
#X connect 2 0 14 0;
#X connect 4 0 3 0;
#X connect 5 0 6 0;
#X connect 6 0 7 0;
#X connect 7 0 4 0;
#X connect 8 0 9 0;
#X connect 9 0 10 0;
#X connect 10 0 15 0;
#X connect 11 0 12 0;
#X connect 12 0 13 0;
#X connect 13 0 16 0;
#X connect 14 0 19 0;
#X connect 15 0 18 0;
#X connect 16 0 17 0;
#X connect 20 0 21 0;
#X connect 21 0 22 0;
#X connect 22 0 23 0;
#X connect 23 0 24 0;
#X connect 25 0 26 0;
#X connect 26 0 27 0;
#X connect 27 0 28 0;
#X connect 28 0 29 0;
#X connect 30 0 14 0;
#X connect 31 0 15 0;
#X connect 32 0 4 0;
#X connect 33 0 16 0;
#X connect 34 0 23 0;
#X connect 35 0 28 0;
#X restore 509 364 pd scoreTextfileWriter;
#X text 570 310 Index from ESP (not internal);
#X obj 390 338 s scorereset;
#X obj 390 317 bng 15 250 50 0 empty empty empty 17 7 0 10 -262144
-1 -1;
#X text 284 26 Initialise patch after boot;
#X floatatom 1084 675 5 0 0 0 - - -;
#X text 13 138 1 start DSP wait 1 sec \; 2 send tempo and wait for
"/start/all 1" command;
#X obj 81 268 r bpm;
#X msg 86 742 connect 192.168.1.255 9999;
#X msg 90 70 procedure done;
#N canvas 271 41 541 364 audioengine 0;
#X obj 55 247 outlet~;
#X obj 322 14 inlet;
#X msg 283 243 0;
#X obj 54 88 hradio 20 1 0 5 empty empty Sound_source 0 -8 0 10 -4034
-1 -1 0;
#X text 326 242 Stop playback;
#N canvas 278 428 790 430 sampleselectESP 0;
#X obj 166 370 readsf~;
#X msg 166 319 0;
#X obj 347 11 declare -path /home/pi/Pd;
#X obj 85 109 sel 0;
#X obj 85 144 sel 1;
#X obj 84 171 sel 2;
#X obj 84 206 sel 3;
#X obj 166 289 r boot;
#X text 65 312 Stop playback;
#X obj 166 397 outlet~;
#X obj 25 80 hradio 20 1 0 5 empty empty Sound_source 0 -8 0 10 -4034
-1 -1 0;
#X obj 94 289 r stopall;
#X obj 347 42 inlet set bpm;
#X obj 181 10 inlet stopaudio;
#X obj 25 12 inlet choose audio;
#X msg 359 160 open ./audioloops/\$1bpm/metronome_only.wav \, 1;
#X msg 359 192 open ./audioloops/\$1bpm/drum_loop_simple.wav \, 1;
#X msg 358 224 open ./audioloops/\$1bpm/drum_loop.wav \, 1;
#X msg 359 256 open ./audioloops/\$1bpm/jungle.wav \, 1;
#X obj 217 47 r bpm;
#X msg 347 72 \; bpm \$1;
#X floatatom 267 114 5 0 0 0 - - -;
#X obj 168 112 bng 15 250 50 0 empty empty empty 17 7 0 10 -262144
-1 -1;
#X msg 217 74 set \$1;
#X floatatom 267 147 5 0 0 0 - - -;
#X floatatom 267 177 5 0 0 0 - - -;
#X floatatom 267 211 5 0 0 0 - - -;
#X obj 168 145 bng 15 250 50 0 empty empty empty 17 7 0 10 -262144
-1 -1;
#X obj 168 175 bng 15 250 50 0 empty empty empty 17 7 0 10 -262144
-1 -1;
#X obj 168 209 bng 15 250 50 0 empty empty empty 17 7 0 10 -262144
-1 -1;
#X obj 223 388 s restartsound;
#X obj 35 39 r restartsound;
#X obj 84 234 sel 4;
#X floatatom 266 240 5 0 0 0 - - -;
#X obj 167 238 bng 15 250 50 0 empty empty empty 17 7 0 10 -262144
-1 -1;
#X msg 358 285 open ./audioloops/\$1bpm/1234.wav \, 1;
#X connect 0 0 9 0;
#X connect 0 1 30 0;
#X connect 1 0 0 0;
#X connect 3 0 22 0;
#X connect 4 0 27 0;
#X connect 5 0 28 0;
#X connect 6 0 29 0;
#X connect 7 0 1 0;
#X connect 10 0 3 0;
#X connect 10 0 6 0;
#X connect 10 0 5 0;
#X connect 10 0 4 0;
#X connect 10 0 32 0;
#X connect 11 0 1 0;
#X connect 12 0 20 0;
#X connect 13 0 1 0;
#X connect 14 0 10 0;
#X connect 15 0 0 0;
#X connect 16 0 0 0;
#X connect 17 0 0 0;
#X connect 18 0 0 0;
#X connect 19 0 23 0;
#X connect 21 0 15 0;
#X connect 22 0 21 0;
#X connect 23 0 21 0;
#X connect 23 0 24 0;
#X connect 23 0 25 0;
#X connect 23 0 26 0;
#X connect 23 0 33 0;
#X connect 24 0 16 0;
#X connect 25 0 17 0;
#X connect 26 0 18 0;
#X connect 27 0 24 0;
#X connect 28 0 25 0;
#X connect 29 0 26 0;
#X connect 31 0 10 0;
#X connect 32 0 34 0;
#X connect 33 0 35 0;
#X connect 34 0 33 0;
#X connect 35 0 0 0;
#X restore 54 203 pd sampleselectESP;
#X obj 283 272 s stopall;
#X obj 283 165 r OSCin;
#X obj 283 218 sel 0;
#X obj 283 190 route /start/all;
#X obj 115 144 hradio 20 1 0 6 empty empty BPM_Chooser 0 -8 0 10 -159808
-1 -1 1;
#X obj 245 102 r boot;
#N canvas 678 175 485 325 audioetupAndSelecter 0;
#X obj 184 70 r OSCin;
#X obj 184 96 route /soundselect;
#X obj 18 26 r audiometronome;
#X obj 18 56 bng 15 250 50 0 empty empty empty 17 7 0 10 -262144 -1
-1;
#X obj 18 78 t b b;
#X obj 166 26 r gameon;
#X floatatom 184 121 5 0 0 0 - - -;
#X obj 166 154 i;
#X obj 18 111 delay 20;
#X obj 18 172 outlet;
#X obj 248 25 r boot;
#X obj 248 48 bng 15 250 50 0 empty empty empty 17 7 0 10 -262144 -1
-1;
#X msg 248 70 0;
#X obj 166 78 bng 15 250 50 0 empty empty empty 17 7 0 10 -262144 -1
-1;
#X msg 91 111 set 4;
#X connect 0 0 1 0;
#X connect 1 0 6 0;
#X connect 2 0 3 0;
#X connect 3 0 4 0;
#X connect 4 0 8 0;
#X connect 4 1 14 0;
#X connect 5 0 13 0;
#X connect 6 0 7 1;
#X connect 7 0 9 0;
#X connect 8 0 9 0;
#X connect 10 0 11 0;
#X connect 11 0 12 0;
#X connect 12 0 7 0;
#X connect 13 0 7 0;
#X connect 14 0 9 0;
#X restore 54 48 pd audioetupAndSelecter;
#N canvas 897 300 450 300 tempoSelector 0;
#X obj 72 18 inlet;
#X obj 88 128 outlet;
#X msg 16 76 80;
#X msg 53 75 90;
#X msg 88 76 100;
#X msg 125 76 110;
#X msg 160 77 120;
#X obj 72 48 sel 0 1 2 3 4;
#X connect 0 0 7 0;
#X connect 2 0 1 0;
#X connect 3 0 1 0;
#X connect 4 0 1 0;
#X connect 5 0 1 0;
#X connect 6 0 1 0;
#X connect 7 0 2 0;
#X connect 7 1 3 0;
#X connect 7 2 4 0;
#X connect 7 3 5 0;
#X connect 7 4 6 0;
#X restore 115 171 pd tempoSelector;
#N canvas 879 43 450 300 temporeceiveOSC 0;
#X obj 72 33 r OSCin;
#X obj 72 61 route /game/tempo;
#X msg 104 121 1;
#X msg 142 120 2;
#X msg 178 119 3;
#X msg 214 119 4;
#X msg 70 121 0;
#X obj 26 89 s bpm;
#X obj 123 174 outlet;
#X obj 72 89 select 80 90 100 110 120;
#X connect 0 0 1 0;
#X connect 1 0 7 0;
#X connect 1 0 9 0;
#X connect 2 0 8 0;
#X connect 3 0 8 0;
#X connect 4 0 8 0;
#X connect 5 0 8 0;
#X connect 6 0 8 0;
#X connect 9 0 6 0;
#X connect 9 1 2 0;
#X connect 9 2 3 0;
#X connect 9 3 4 0;
#X connect 9 4 5 0;
#X restore 244 69 pd temporeceiveOSC;
#X obj 42 12 inlet;
#X msg 245 125 1;
#X connect 1 0 2 0;
#X connect 2 0 6 0;
#X connect 2 0 5 1;
#X connect 3 0 5 0;
#X connect 5 0 0 0;
#X connect 7 0 9 0;
#X connect 8 0 2 0;
#X connect 9 0 8 0;
#X connect 10 0 13 0;
#X connect 11 0 16 0;
#X connect 12 0 3 0;
#X connect 13 0 5 2;
#X connect 14 0 10 0;
#X connect 15 0 3 0;
#X connect 16 0 10 0;
#X restore 185 559 pd audioengine;
#X obj 280 527 bng 15 250 50 0 empty empty empty 17 7 0 10 -262144
-1 -1;
#X text 236 504 Stop all audio;
#X floatatom 1085 1002 5 0 0 0 - - -;
#X floatatom 1133 1002 5 0 0 0 - - -;
#X floatatom 1181 1002 5 0 0 0 - - -;
#X floatatom 1229 1002 5 0 0 0 - - -;
#X text 1104 1004 P1;
#X text 1152 1004 P2;
#X text 1200 1004 P3;
#X text 1248 1004 P4;
#X floatatom 1086 1093 5 0 0 0 - - -;
#X floatatom 1134 1093 5 0 0 0 - - -;
#X floatatom 1182 1093 5 0 0 0 - - -;
#X floatatom 1230 1093 5 0 0 0 - - -;
#X text 1105 1095 P1;
#X text 1153 1095 P2;
#X text 1201 1095 P3;
#X text 1249 1095 P4;
#N canvas 412 82 818 777 trueMiss 0;
#X obj 250 135 r OSCin;
#X obj 250 164 route /player;
#X obj 250 234 bng 15 250 50 0 empty empty empty 17 7 0 10 -262144
-1 -1;
#X obj 267 234 bng 15 250 50 0 empty empty empty 17 7 0 10 -262144
-1 -1;
#X obj 284 234 bng 15 250 50 0 empty empty empty 17 7 0 10 -262144
-1 -1;
#X obj 301 234 bng 15 250 50 0 empty empty empty 17 7 0 10 -262144
-1 -1;
#X obj 318 234 bng 15 250 50 0 empty empty empty 17 7 0 10 -262144
-1 -1;
#X obj 418 345 bng 15 250 50 0 empty empty empty 17 7 0 10 -262144
-1 -1;
#X obj 418 152 route /game/clap/101/score /game/clap/102/score /game/clap/103/score
/game/clap/104/score;
#X obj 499 345 bng 15 250 50 0 empty empty empty 17 7 0 10 -262144
-1 -1;
#X obj 581 345 bng 15 250 50 0 empty empty empty 17 7 0 10 -262144
-1 -1;
#X obj 663 345 bng 15 250 50 0 empty empty empty 17 7 0 10 -262144
-1 -1;
#X floatatom 442 344 5 0 0 0 - - -;
#X floatatom 532 344 5 0 0 0 - - -;
#X floatatom 613 343 5 0 0 0 - - -;
#X floatatom 693 343 5 0 0 0 - - -;
#X floatatom 217 408 5 0 0 0 - - -;
#X floatatom 258 408 5 0 0 0 - - -;
#X floatatom 299 408 5 0 0 0 - - -;
#X floatatom 340 409 5 0 0 0 - - -;
#X floatatom 382 409 5 0 0 0 - - -;
#X text 231 409 P1;
#X text 272 408 P2;
#X text 312 409 P3;
#X text 351 409 P4;
#X text 393 409 ALL;
#X obj 443 199 t b f;
#X obj 533 198 t b f;
#X obj 612 197 t b f;
#X obj 692 196 t b f;
#X text 41 16 Delay comparison with one beat \, since player has 1
beat to react;
#X obj 335 234 bng 15 250 50 0 empty empty empty 17 7 0 10 -262144
-1 -1;
#X obj 443 284 delay 200;
#X obj 533 284 delay 200;
#X obj 612 283 delay 200;
#X obj 692 282 delay 200;
#X obj 27 453 s stopall;
#X obj 27 429 bng 15 250 50 0 empty empty empty 17 7 0 10 -262144 -1
-1;
#X obj 267 528 outlet;
#X obj 320 528 outlet;
#X obj 371 528 outlet;
#X obj 421 528 outlet;
#X text 519 534 Print all scores;
#X obj 496 536 bng 15 250 50 0 empty empty empty 17 7 0 10 -262144
-1 -1;
#X obj 593 229 r metroms;
#N canvas 481 55 796 453 conditionalLogic 0;
#X floatatom 81 241 5 0 0 0 - - -;
#X floatatom 162 240 5 0 0 0 - - -;
#X floatatom 243 240 5 0 0 0 - - -;
#X floatatom 324 241 5 0 0 0 - - -;
#X obj 81 265 sel 1;
#X obj 162 265 sel 1;
#X obj 243 265 sel 1;
#X obj 324 265 sel 1;
#X obj 81 65 inlet;
#X obj 141 64 inlet;
#X obj 200 64 inlet;
#X obj 260 64 inlet;
#X obj 382 65 inlet;
#X obj 437 64 inlet;
#X obj 491 64 inlet;
#X obj 573 65 inlet;
#X obj 81 401 outlet;
#X obj 162 400 outlet;
#X obj 243 399 outlet;
#X obj 324 398 outlet;
#X obj 113 344 + 1;
#X obj 81 344 i;
#X obj 194 344 + 1;
#X obj 162 344 i;
#X obj 275 344 + 1;
#X obj 243 344 i;
#X obj 356 344 + 1;
#X obj 324 344 i;
#X floatatom 81 374 5 0 0 0 - - -;
#X floatatom 162 374 5 0 0 0 - - -;
#X floatatom 243 374 5 0 0 0 - - -;
#X floatatom 324 374 5 0 0 0 - - -;
#X obj 95 307 r p1TM;
#X obj 177 306 r p2TM;
#X obj 256 306 r p3TM;
#X obj 333 307 r p4TM;
#X obj 81 110 expr if($i2 == 0 && $i1 == 0 \, 1 \, 0) \;;
#X obj 162 143 expr if($i2 == 0 && $i1 == 0 \, 1 \, 0) \;;
#X obj 242 173 expr if($i2 == 0 && $i1 == 0 \, 1 \, 0) \;;
#X obj 324 205 expr if($i2 == 0 && $i1 == 0 \, 1 \, 0) \;;
#X text 79 23 Game condition;
#X text 380 24 Clapping;
#X connect 0 0 4 0;
#X connect 1 0 5 0;
#X connect 2 0 6 0;
#X connect 3 0 7 0;
#X connect 4 0 21 0;
#X connect 5 0 23 0;
#X connect 6 0 25 0;
#X connect 7 0 27 0;
#X connect 8 0 36 0;
#X connect 9 0 37 0;
#X connect 10 0 38 0;
#X connect 11 0 39 0;
#X connect 12 0 36 1;
#X connect 13 0 37 1;
#X connect 14 0 38 1;
#X connect 15 0 39 1;
#X connect 20 0 21 1;
#X connect 21 0 20 0;
#X connect 21 0 28 0;
#X connect 22 0 23 1;
#X connect 23 0 22 0;
#X connect 23 0 29 0;
#X connect 24 0 25 1;
#X connect 25 0 24 0;
#X connect 25 0 30 0;
#X connect 26 0 27 1;
#X connect 27 0 26 0;
#X connect 27 0 31 0;
#X connect 28 0 16 0;
#X connect 29 0 17 0;
#X connect 30 0 18 0;
#X connect 31 0 19 0;
#X connect 32 0 21 0;
#X connect 33 0 23 0;
#X connect 34 0 25 0;
#X connect 35 0 27 0;
#X connect 36 0 0 0;
#X connect 37 0 1 0;
#X connect 38 0 2 0;
#X connect 39 0 3 0;
#X restore 285 472 pd conditionalLogic;
#X floatatom 285 501 5 0 0 0 - - -;
#X floatatom 328 501 5 0 0 0 - - -;
#X floatatom 371 501 5 0 0 0 - - -;
#X floatatom 415 501 5 0 0 0 - - -;
#X floatatom 522 468 5 0 0 0 - - -;
#X floatatom 581 468 5 0 0 0 - - -;
#X floatatom 641 468 5 0 0 0 - - -;
#X floatatom 701 468 5 0 0 0 - - -;
#X obj 105 452 s scorereset;
#X obj 105 430 bng 15 250 50 0 empty empty empty 17 7 0 10 -262144
-1 -1;
#N canvas 0 23 450 300 bootandresetscores 0;
#X obj 74 13 r boot;
#X msg 106 142 0;
#X obj 74 118 bng 15 250 50 0 empty empty empty 17 7 0 10 -262144 -1
-1;
#X obj 85 89 r scorereset;
#X obj 74 39 t b b;
#X obj 191 89 inlet;
#X obj 24 175 s p1FP;
#X obj 106 174 s p2FP;
#X obj 185 174 s p3FP;
#X obj 262 175 s p4FP;
#X obj 25 201 s p1TM;
#X obj 107 200 s p2TM;
#X obj 186 200 s p3TM;
#X obj 263 201 s p4TM;
#X connect 0 0 4 0;
#X connect 1 0 6 0;
#X connect 1 0 9 0;
#X connect 1 0 8 0;
#X connect 1 0 7 0;
#X connect 1 0 10 0;
#X connect 1 0 13 0;
#X connect 1 0 12 0;
#X connect 1 0 11 0;
#X connect 2 0 1 0;
#X connect 3 0 2 0;
#X connect 4 0 2 0;
#X connect 4 1 1 0;
#X connect 5 0 2 0;
#X restore 29 543 pd bootandresetscores;
#N canvas 31 23 450 300 continuousTrueMissScorePrint 0;
#X obj 46 16 inlet;
#X obj 98 15 inlet;
#X obj 153 15 inlet;
#X obj 202 18 inlet;
#X obj 11 159 print FALSEPOSITIVE Player 1;
#X obj 70 190 print FALSEPOSITIVE Player 2;
#X obj 235 159 print FALSEPOSITIVE Player 3;
#X obj 281 190 print FALSEPOSITIVE Player 4;
#X obj 98 125 i;
#X obj 141 125 i;
#X obj 181 125 i;
#X obj 230 126 i;
#X obj 164 95 bng 15 250 50 0 empty empty empty 17 7 0 10 -262144 -1
-1;
#X obj 285 18 inlet;
#X connect 0 0 8 1;
#X connect 1 0 9 1;
#X connect 2 0 10 1;
#X connect 8 0 4 0;
#X connect 9 0 5 0;
#X connect 10 0 6 0;
#X connect 11 0 7 0;
#X connect 12 0 8 0;
#X connect 12 0 9 0;
#X connect 12 0 10 0;
#X connect 12 0 11 0;
#X connect 13 0 12 0;
#X restore 258 556 pd continuousTrueMissScorePrint;
#X f 32;
#X text 24 496 Amount of true misses \; you should've clapped!;
#X msg 612 315 set 0;
#X msg 443 311 set 0;
#X msg 692 314 set 0;
#N canvas 0 23 796 453 conditionalLogicAllCLap 0;
#X floatatom 81 179 5 0 0 0 - - -;
#X floatatom 162 178 5 0 0 0 - - -;
#X floatatom 243 178 5 0 0 0 - - -;
#X floatatom 324 179 5 0 0 0 - - -;
#X obj 81 203 sel 1;
#X obj 162 203 sel 1;
#X obj 243 203 sel 1;
#X obj 324 203 sel 1;
#X obj 79 25 inlet;
#X obj 141 25 inlet;
#X obj 200 25 inlet;
#X obj 260 25 inlet;
#X obj 382 25 inlet;
#X obj 81 397 outlet;
#X obj 162 396 outlet;
#X obj 243 395 outlet;
#X obj 324 394 outlet;
#X obj 81 60 expr if($i1 > 0 && $i2 == 1 \, 1 \, 0) \;;
#X obj 162 93 expr if($i1 > 0 && $i2 == 1 \, 1 \, 0) \;;
#X obj 243 123 expr if($i1 > 0 && $i2 == 1 \, 1 \, 0) \;;
#X obj 324 155 expr if($i1 > 0 && $i2 == 1 \, 1 \, 0) \;;
#X obj 113 340 + 1;
#X obj 81 340 i;
#X obj 194 340 + 1;
#X obj 162 340 i;
#X obj 275 340 + 1;
#X obj 243 340 i;
#X obj 356 340 + 1;
#X obj 324 340 i;
#N canvas 0 23 450 300 bootandresetscores 0;
#X obj 106 43 r boot;
#X msg 106 102 0;
#X obj 141 103 bng 15 250 50 0 empty empty empty 17 7 0 10 -262144
-1 -1;
#X obj 151 66 r scorereset;
#X obj 106 68 t b b;
#X msg 168 102 set 0;
#X obj 30 92 bang;
#X obj 30 68 r stopall;
#X obj 106 133 outlet;
#X obj 49 20 inlet;
#X connect 0 0 4 0;
#X connect 1 0 8 0;
#X connect 2 0 1 0;
#X connect 2 0 5 0;
#X connect 3 0 2 0;
#X connect 4 0 2 0;
#X connect 4 1 1 0;
#X connect 6 0 2 0;
#X connect 7 0 6 0;
#X connect 9 0 2 0;
#X restore 191 302 pd bootandresetscores;
#X floatatom 81 370 5 0 0 0 - - -;
#X floatatom 162 370 5 0 0 0 - - -;
#X floatatom 243 370 5 0 0 0 - - -;
#X floatatom 324 370 5 0 0 0 - - -;
#X obj 95 257 s p1FP;
#X obj 172 257 s p2FP;
#X obj 254 256 s p3FP;
#X obj 335 257 s p4FP;
#X obj 95 231 bng 15 250 50 0 empty empty empty 17 7 0 10 -262144 -1
-1;
#X obj 172 230 bng 15 250 50 0 empty empty empty 17 7 0 10 -262144
-1 -1;
#X obj 254 230 bng 15 250 50 0 empty empty empty 17 7 0 10 -262144
-1 -1;
#X obj 335 231 bng 15 250 50 0 empty empty empty 17 7 0 10 -262144
-1 -1;
#X connect 0 0 4 0;
#X connect 1 0 5 0;
#X connect 2 0 6 0;
#X connect 3 0 7 0;
#X connect 4 0 22 0;
#X connect 4 0 38 0;
#X connect 5 0 24 0;
#X connect 5 0 39 0;
#X connect 6 0 26 0;
#X connect 6 0 40 0;
#X connect 7 0 28 0;
#X connect 7 0 41 0;
#X connect 8 0 17 0;
#X connect 9 0 18 0;
#X connect 10 0 19 0;
#X connect 11 0 20 0;
#X connect 12 0 17 1;
#X connect 12 0 18 1;
#X connect 12 0 20 1;
#X connect 12 0 19 1;
#X connect 17 0 0 0;
#X connect 18 0 1 0;
#X connect 19 0 2 0;
#X connect 20 0 3 0;
#X connect 21 0 22 1;
#X connect 22 0 21 0;
#X connect 22 0 30 0;
#X connect 23 0 24 1;
#X connect 24 0 23 0;
#X connect 24 0 31 0;
#X connect 25 0 26 1;
#X connect 26 0 25 0;
#X connect 26 0 32 0;
#X connect 27 0 28 1;
#X connect 28 0 27 0;
#X connect 28 0 33 0;
#X connect 29 0 22 0;
#X connect 29 0 24 0;
#X connect 29 0 26 0;
#X connect 29 0 28 0;
#X connect 30 0 13 0;
#X connect 31 0 14 0;
#X connect 32 0 15 0;
#X connect 33 0 16 0;
#X connect 38 0 34 0;
#X connect 39 0 35 0;
#X connect 40 0 36 0;
#X connect 41 0 37 0;
#X restore 522 441 pd conditionalLogicAllCLap;
#X obj 443 70 tgl 15 0 empty empty empty 17 7 0 10 -262144 -1 -1 0
1;
#N canvas 0 23 450 300 logicTester 0;
#X floatatom 69 156 5 1 6 0 - - -;
#X obj 69 178 + 40;
#X obj 68 88 metro;
#X obj 69 111 random 5;
#X obj 69 133 + 1;
#X obj 100 63 r metroms;
#X obj 68 36 inlet;
#X obj 69 206 outlet;
#X connect 0 0 1 0;
#X connect 1 0 7 0;
#X connect 2 0 3 0;
#X connect 3 0 4 0;
#X connect 4 0 0 0;
#X connect 5 0 2 1;
#X connect 6 0 2 0;
#X restore 443 92 pd logicTester;
#X msg 533 313 set 0;
#X obj 554 37 r gameon;
#X obj 554 87 metro;
#X obj 586 62 r metroms;
#X obj 554 64 tgl 15 0 empty empty empty 17 7 0 10 -262144 -1 -1 0
1;
#X obj 554 116 delay;
#X floatatom 611 94 5 0 0 0 - - -;
#X floatatom 347 75 5 0 0 0 - - -;
#X obj 344 45 bng 15 250 50 0 empty empty empty 17 7 0 10 -262144 -1
-1;
#X obj 593 252 / 1;
#X obj 250 199 sel 1 2 3 4 5 6;
#X obj 352 234 bng 15 250 50 0 empty empty empty 17 7 0 10 -262144
-1 -1;
#X obj 217 354 rk_gameConditions_ESP, f 24;
#X obj 285 586 s p1TMTotal;
#X obj 328 610 s p2TMTotal;
#X obj 371 633 s p3TMTotal;
#X obj 415 657 s p4TMTotal;
#X connect 0 0 1 0;
#X connect 0 0 8 0;
#X connect 1 0 75 0;
#X connect 8 0 7 0;
#X connect 8 0 26 0;
#X connect 8 1 9 0;
#X connect 8 1 27 0;
#X connect 8 2 10 0;
#X connect 8 2 28 0;
#X connect 8 3 11 0;
#X connect 8 3 29 0;
#X connect 12 0 62 0;
#X connect 12 0 45 4;
#X connect 13 0 62 1;
#X connect 13 0 45 5;
#X connect 14 0 62 2;
#X connect 14 0 45 6;
#X connect 15 0 62 3;
#X connect 15 0 45 7;
#X connect 16 0 45 0;
#X connect 17 0 45 1;
#X connect 18 0 45 2;
#X connect 19 0 45 3;
#X connect 26 0 32 0;
#X connect 26 1 12 0;
#X connect 27 0 33 0;
#X connect 27 1 13 0;
#X connect 28 0 34 0;
#X connect 28 1 14 0;
#X connect 29 0 35 0;
#X connect 29 1 15 0;
#X connect 32 0 60 0;
#X connect 33 0 65 0;
#X connect 34 0 59 0;
#X connect 35 0 61 0;
#X connect 37 0 36 0;
#X connect 43 0 57 4;
#X connect 44 0 74 0;
#X connect 45 0 46 0;
#X connect 45 1 47 0;
#X connect 45 2 48 0;
#X connect 45 3 49 0;
#X connect 46 0 38 0;
#X connect 46 0 57 0;
#X connect 46 0 78 0;
#X connect 47 0 39 0;
#X connect 47 0 57 1;
#X connect 47 0 79 0;
#X connect 48 0 40 0;
#X connect 48 0 57 2;
#X connect 48 0 80 0;
#X connect 49 0 41 0;
#X connect 49 0 57 3;
#X connect 49 0 81 0;
#X connect 55 0 54 0;
#X connect 59 0 14 0;
#X connect 60 0 12 0;
#X connect 61 0 15 0;
#X connect 62 0 50 0;
#X connect 62 1 51 0;
#X connect 62 2 52 0;
#X connect 62 3 53 0;
#X connect 63 0 64 0;
#X connect 64 0 26 0;
#X connect 64 0 27 0;
#X connect 64 0 28 0;
#X connect 65 0 13 0;
#X connect 66 0 69 0;
#X connect 67 0 70 0;
#X connect 68 0 67 1;
#X connect 69 0 67 0;
#X connect 70 0 13 0;
#X connect 70 0 12 0;
#X connect 70 0 14 0;
#X connect 70 0 15 0;
#X connect 71 0 70 1;
#X connect 72 0 26 0;
#X connect 73 0 72 0;
#X connect 74 0 33 1;
#X connect 74 0 35 1;
#X connect 74 0 34 1;
#X connect 74 0 32 1;
#X connect 75 0 2 0;
#X connect 75 1 3 0;
#X connect 75 2 4 0;
#X connect 75 3 5 0;
#X connect 75 4 6 0;
#X connect 75 5 31 0;
#X connect 75 6 76 0;
#X connect 77 0 16 0;
#X connect 77 1 17 0;
#X connect 77 2 18 0;
#X connect 77 3 19 0;
#X connect 77 4 20 0;
#X restore 1086 1071 pd trueMiss;
#X f 21;
#N canvas 560 52 818 777 falsePositives 0;
#X obj 286 64 r OSCin;
#X obj 286 93 route /player;
#X obj 286 183 bng 15 250 50 0 empty empty empty 17 7 0 10 -262144
-1 -1;
#X obj 303 183 bng 15 250 50 0 empty empty empty 17 7 0 10 -262144
-1 -1;
#X obj 320 183 bng 15 250 50 0 empty empty empty 17 7 0 10 -262144
-1 -1;
#X obj 337 183 bng 15 250 50 0 empty empty empty 17 7 0 10 -262144
-1 -1;
#X obj 354 183 bng 15 250 50 0 empty empty empty 17 7 0 10 -262144
-1 -1;
#X obj 418 295 bng 15 250 50 0 empty empty empty 17 7 0 10 -262144
-1 -1;
#X obj 418 102 route /game/clap/101/score /game/clap/102/score /game/clap/103/score
/game/clap/104/score;
#X obj 499 295 bng 15 250 50 0 empty empty empty 17 7 0 10 -262144
-1 -1;
#X obj 581 295 bng 15 250 50 0 empty empty empty 17 7 0 10 -262144
-1 -1;
#X obj 663 295 bng 15 250 50 0 empty empty empty 17 7 0 10 -262144
-1 -1;
#X floatatom 442 294 5 0 0 0 - - -;
#X floatatom 532 294 5 0 0 0 - - -;
#X floatatom 613 293 5 0 0 0 - - -;
#X floatatom 693 293 5 0 0 0 - - -;
#X floatatom 154 320 5 0 0 0 - - -;
#X floatatom 195 320 5 0 0 0 - - -;
#X floatatom 236 320 5 0 0 0 - - -;
#X floatatom 277 321 5 0 0 0 - - -;
#X floatatom 319 321 5 0 0 0 - - -;
#X text 168 321 P1;
#X text 209 320 P2;
#X text 249 321 P3;
#X text 288 321 P4;
#X text 330 321 ALL;
#X obj 436 149 t b f;
#X obj 525 148 t b f;
#X obj 604 147 t b f;
#X obj 684 146 t b f;
#X text 19 447 Amount of falsepositives \; you should NOT have clapped!
;
#X text 41 16 Delay comparison with one beat \, since player has 1
beat to react;
#X obj 371 183 bng 15 250 50 0 empty empty empty 17 7 0 10 -262144
-1 -1;
#X obj 443 234 delay 200;
#X obj 533 234 delay 200;
#X obj 612 233 delay 200;
#X obj 692 232 delay 200;
#X obj 29 404 s stopall;
#X obj 29 380 bng 15 250 50 0 empty empty empty 17 7 0 10 -262144 -1
-1;
#X obj 267 478 outlet;
#X obj 320 478 outlet;
#X obj 371 478 outlet;
#X obj 421 478 outlet;
#X text 519 484 Print all scores;
#X obj 496 486 bng 15 250 50 0 empty empty empty 17 7 0 10 -262144
-1 -1;
#N canvas 31 23 450 300 continuousFalsePositiveScorePrint 0;
#X obj 46 16 inlet;
#X obj 98 15 inlet;
#X obj 153 15 inlet;
#X obj 202 18 inlet;
#X obj 11 159 print FALSEPOSITIVE Player 1;
#X obj 70 190 print FALSEPOSITIVE Player 2;
#X obj 235 159 print FALSEPOSITIVE Player 3;
#X obj 281 190 print FALSEPOSITIVE Player 4;
#X obj 98 115 i;
#X obj 141 115 i;
#X obj 181 115 i;
#X obj 230 116 i;
#X obj 167 88 bng 15 250 50 0 empty empty empty 17 7 0 10 -262144 -1
-1;
#X obj 285 18 inlet;
#X connect 0 0 8 1;
#X connect 1 0 9 1;
#X connect 2 0 10 1;
#X connect 8 0 4 0;
#X connect 9 0 5 0;
#X connect 10 0 6 0;
#X connect 11 0 7 0;
#X connect 12 0 8 0;
#X connect 12 0 9 0;
#X connect 12 0 10 0;
#X connect 12 0 11 0;
#X connect 13 0 12 0;
#X restore 247 506 pd continuousFalsePositiveScorePrint;
#X obj 593 179 r metroms;
#N canvas 97 168 796 453 conditionalLogic 0;
#X floatatom 31 209 5 0 0 0 - - -;
#X floatatom 112 208 5 0 0 0 - - -;
#X floatatom 193 208 5 0 0 0 - - -;
#X floatatom 274 209 5 0 0 0 - - -;
#X obj 31 233 sel 1;
#X obj 112 233 sel 1;
#X obj 193 233 sel 1;
#X obj 274 233 sel 1;
#X obj 31 55 inlet;
#X obj 91 55 inlet;
#X obj 150 55 inlet;
#X obj 210 55 inlet;
#X obj 332 55 inlet;
#X obj 382 55 inlet;
#X obj 435 54 inlet;
#X obj 515 54 inlet;
#X obj 31 375 outlet;
#X obj 112 374 outlet;
#X obj 193 373 outlet;
#X obj 274 372 outlet;
#X obj 31 90 expr if($i1 > 0 && $i2 == 1 \, 1 \, 0) \;;
#X obj 112 123 expr if($i1 > 0 && $i2 == 1 \, 1 \, 0) \;;
#X obj 193 153 expr if($i1 > 0 && $i2 == 1 \, 1 \, 0) \;;
#X obj 274 185 expr if($i1 > 0 && $i2 == 1 \, 1 \, 0) \;;
#X obj 63 318 + 1;
#X obj 31 318 i;
#X obj 144 318 + 1;
#X obj 112 318 i;
#X obj 225 318 + 1;
#X obj 193 318 i;
#X obj 306 318 + 1;
#X obj 274 318 i;
#X floatatom 31 348 5 0 0 0 - - -;
#X floatatom 112 348 5 0 0 0 - - -;
#X floatatom 193 348 5 0 0 0 - - -;
#X floatatom 274 348 5 0 0 0 - - -;
#X obj 45 281 r p1FP;
#X obj 127 280 r p2FP;
#X obj 206 280 r p3FP;
#X obj 283 281 r p4FP;
#X text 331 17 Game condition;
#X text 28 15 Clapping;
#X connect 0 0 4 0;
#X connect 1 0 5 0;
#X connect 2 0 6 0;
#X connect 3 0 7 0;
#X connect 4 0 25 0;
#X connect 5 0 27 0;
#X connect 6 0 29 0;
#X connect 7 0 31 0;
#X connect 8 0 20 0;
#X connect 9 0 21 0;
#X connect 10 0 22 0;
#X connect 11 0 23 0;
#X connect 12 0 20 1;
#X connect 13 0 21 1;
#X connect 14 0 22 1;
#X connect 15 0 23 1;
#X connect 20 0 0 0;
#X connect 21 0 1 0;
#X connect 22 0 2 0;
#X connect 23 0 3 0;
#X connect 24 0 25 1;
#X connect 25 0 24 0;
#X connect 25 0 32 0;
#X connect 26 0 27 1;
#X connect 27 0 26 0;
#X connect 27 0 33 0;
#X connect 28 0 29 1;
#X connect 29 0 28 0;
#X connect 29 0 34 0;
#X connect 30 0 31 1;
#X connect 31 0 30 0;
#X connect 31 0 35 0;
#X connect 32 0 16 0;
#X connect 33 0 17 0;
#X connect 34 0 18 0;
#X connect 35 0 19 0;
#X connect 36 0 25 0;
#X connect 37 0 27 0;
#X connect 38 0 29 0;
#X connect 39 0 31 0;
#X restore 285 422 pd conditionalLogic;
#X floatatom 285 451 5 0 0 0 - - -;
#X floatatom 328 451 5 0 0 0 - - -;
#X floatatom 371 451 5 0 0 0 - - -;
#X floatatom 415 451 5 0 0 0 - - -;
#X floatatom 522 418 5 0 0 0 - - -;
#X floatatom 586 418 5 0 0 0 - - -;
#X floatatom 650 418 5 0 0 0 - - -;
#X floatatom 715 418 5 0 0 0 - - -;
#X obj 107 403 s scorereset;
#X obj 107 381 bng 15 250 50 0 empty empty empty 17 7 0 10 -262144
-1 -1;
#N canvas 0 23 450 300 bootandresetscores 0;
#X obj 74 17 r boot;
#X msg 106 142 0;
#X obj 74 122 bng 15 250 50 0 empty empty empty 17 7 0 10 -262144 -1
-1;
#X obj 86 93 r scorereset;
#X obj 74 43 t b b;
#X obj 192 93 inlet;
#X obj 24 175 s p1FP;
#X obj 106 174 s p2FP;
#X obj 185 174 s p3FP;
#X obj 262 175 s p4FP;
#X obj 25 201 s p1TM;
#X obj 107 200 s p2TM;
#X obj 186 200 s p3TM;
#X obj 263 201 s p4TM;
#X connect 0 0 4 0;
#X connect 1 0 6 0;
#X connect 1 0 9 0;
#X connect 1 0 8 0;
#X connect 1 0 7 0;
#X connect 1 0 10 0;
#X connect 1 0 13 0;
#X connect 1 0 12 0;
#X connect 1 0 11 0;
#X connect 2 0 1 0;
#X connect 3 0 2 0;
#X connect 4 0 2 0;
#X connect 4 1 1 0;
#X connect 5 0 2 0;
#X restore 29 493 pd bootandresetscores;
#N canvas 565 379 796 453 conditionalLogicAllNoCLap 0;
#X floatatom 81 179 5 0 0 0 - - -;
#X floatatom 162 178 5 0 0 0 - - -;
#X floatatom 243 178 5 0 0 0 - - -;
#X floatatom 324 179 5 0 0 0 - - -;
#X obj 81 203 sel 1;
#X obj 162 203 sel 1;
#X obj 243 203 sel 1;
#X obj 324 203 sel 1;
#X obj 79 25 inlet;
#X obj 141 25 inlet;
#X obj 200 25 inlet;
#X obj 260 25 inlet;
#X obj 382 25 inlet;
#X obj 81 397 outlet;
#X obj 162 396 outlet;
#X obj 243 395 outlet;
#X obj 324 394 outlet;
#X obj 81 60 expr if($i1 > 0 && $i2 == 1 \, 1 \, 0) \;;
#X obj 162 93 expr if($i1 > 0 && $i2 == 1 \, 1 \, 0) \;;
#X obj 243 123 expr if($i1 > 0 && $i2 == 1 \, 1 \, 0) \;;
#X obj 324 155 expr if($i1 > 0 && $i2 == 1 \, 1 \, 0) \;;
#X obj 113 340 + 1;
#X obj 81 340 i;
#X obj 194 340 + 1;
#X obj 162 340 i;
#X obj 275 340 + 1;
#X obj 243 340 i;
#X obj 356 340 + 1;
#X obj 324 340 i;
#N canvas 0 23 450 300 bootandresetscores 0;
#X obj 106 43 r boot;
#X msg 106 102 0;
#X obj 141 103 bng 15 250 50 0 empty empty empty 17 7 0 10 -262144
-1 -1;
#X obj 151 66 r scorereset;
#X obj 106 68 t b b;
#X msg 168 102 set 0;
#X obj 30 92 bang;
#X obj 30 68 r stopall;
#X obj 106 133 outlet;
#X obj 49 20 inlet;
#X connect 0 0 4 0;
#X connect 1 0 8 0;
#X connect 2 0 1 0;
#X connect 2 0 5 0;
#X connect 3 0 2 0;
#X connect 4 0 2 0;
#X connect 4 1 1 0;
#X connect 6 0 2 0;
#X connect 7 0 6 0;
#X connect 9 0 2 0;
#X restore 191 302 pd bootandresetscores;
#X floatatom 81 370 5 0 0 0 - - -;
#X floatatom 162 370 5 0 0 0 - - -;
#X floatatom 243 370 5 0 0 0 - - -;
#X floatatom 324 370 5 0 0 0 - - -;
#X obj 95 257 s p1FP;
#X obj 172 257 s p2FP;
#X obj 254 256 s p3FP;
#X obj 335 257 s p4FP;
#X obj 95 231 bng 15 250 50 0 empty empty empty 17 7 0 10 -262144 -1
-1;
#X obj 172 230 bng 15 250 50 0 empty empty empty 17 7 0 10 -262144
-1 -1;
#X obj 254 230 bng 15 250 50 0 empty empty empty 17 7 0 10 -262144
-1 -1;
#X obj 335 231 bng 15 250 50 0 empty empty empty 17 7 0 10 -262144
-1 -1;
#X connect 0 0 4 0;
#X connect 1 0 5 0;
#X connect 2 0 6 0;
#X connect 3 0 7 0;
#X connect 4 0 22 0;
#X connect 4 0 38 0;
#X connect 5 0 24 0;
#X connect 5 0 39 0;
#X connect 6 0 26 0;
#X connect 6 0 40 0;
#X connect 7 0 28 0;
#X connect 7 0 41 0;
#X connect 8 0 17 0;
#X connect 9 0 18 0;
#X connect 10 0 19 0;
#X connect 11 0 20 0;
#X connect 12 0 17 1;
#X connect 12 0 18 1;
#X connect 12 0 20 1;
#X connect 12 0 19 1;
#X connect 17 0 0 0;
#X connect 18 0 1 0;
#X connect 19 0 2 0;
#X connect 20 0 3 0;
#X connect 21 0 22 1;
#X connect 22 0 21 0;
#X connect 22 0 30 0;
#X connect 23 0 24 1;
#X connect 24 0 23 0;
#X connect 24 0 31 0;
#X connect 25 0 26 1;
#X connect 26 0 25 0;
#X connect 26 0 32 0;
#X connect 27 0 28 1;
#X connect 28 0 27 0;
#X connect 28 0 33 0;
#X connect 29 0 22 0;
#X connect 29 0 24 0;
#X connect 29 0 26 0;
#X connect 29 0 28 0;
#X connect 30 0 13 0;
#X connect 31 0 14 0;
#X connect 32 0 15 0;
#X connect 33 0 16 0;
#X connect 38 0 34 0;
#X connect 39 0 35 0;
#X connect 40 0 36 0;
#X connect 41 0 37 0;
#X restore 522 391 pd conditionalLogicAllNoCLap;
#X msg 443 261 set 0;
#X msg 533 267 set 0;
#X msg 612 265 set 0;
#X msg 692 264 set 0;
#X obj 593 202 - 100;
#X obj 286 148 sel 1 2 3 4 5 6;
#X obj 388 183 bng 15 250 50 0 empty empty empty 17 7 0 10 -262144
-1 -1;
#X obj 354 282 delay;
#X obj 372 226 r metroms;
#X obj 354 254 / 2;
#X obj 154 289 rk_gameConditions_ESP, f 24;
#X obj 285 535 s p1FPTotal;
#X obj 328 559 s p2FPTotal;
#X obj 371 582 s p3FPTotal;
#X obj 415 606 s p4FPTotal;
#X connect 0 0 1 0;
#X connect 0 0 8 0;
#X connect 1 0 65 0;
#X connect 8 0 7 0;
#X connect 8 0 26 0;
#X connect 8 1 9 0;
#X connect 8 1 27 0;
#X connect 8 2 10 0;
#X connect 8 2 28 0;
#X connect 8 3 11 0;
#X connect 8 3 29 0;
#X connect 12 0 47 0;
#X connect 12 0 59 0;
#X connect 13 0 47 1;
#X connect 13 0 59 1;
#X connect 14 0 47 2;
#X connect 14 0 59 2;
#X connect 15 0 47 3;
#X connect 15 0 59 3;
#X connect 16 0 47 4;
#X connect 17 0 47 5;
#X connect 18 0 47 6;
#X connect 19 0 47 7;
#X connect 20 0 59 4;
#X connect 26 0 33 0;
#X connect 26 1 12 0;
#X connect 27 0 34 0;
#X connect 27 1 13 0;
#X connect 28 0 35 0;
#X connect 28 1 14 0;
#X connect 29 0 36 0;
#X connect 29 1 15 0;
#X connect 33 0 60 0;
#X connect 34 0 61 0;
#X connect 35 0 62 0;
#X connect 36 0 63 0;
#X connect 38 0 37 0;
#X connect 44 0 45 4;
#X connect 46 0 64 0;
#X connect 47 0 48 0;
#X connect 47 1 49 0;
#X connect 47 2 50 0;
#X connect 47 3 51 0;
#X connect 48 0 39 0;
#X connect 48 0 45 0;
#X connect 48 0 71 0;
#X connect 49 0 40 0;
#X connect 49 0 45 1;
#X connect 49 0 72 0;
#X connect 50 0 41 0;
#X connect 50 0 45 2;
#X connect 50 0 73 0;
#X connect 51 0 42 0;
#X connect 51 0 45 3;
#X connect 51 0 74 0;
#X connect 57 0 56 0;
#X connect 59 0 52 0;
#X connect 59 1 53 0;
#X connect 59 2 54 0;
#X connect 59 3 55 0;
#X connect 60 0 12 0;
#X connect 61 0 13 0;
#X connect 62 0 14 0;
#X connect 63 0 15 0;
#X connect 64 0 34 1;
#X connect 64 0 36 1;
#X connect 64 0 35 1;
#X connect 64 0 33 1;
#X connect 65 0 2 0;
#X connect 65 1 3 0;
#X connect 65 2 4 0;
#X connect 65 3 5 0;
#X connect 65 4 6 0;
#X connect 65 5 32 0;
#X connect 65 6 66 0;
#X connect 68 0 69 1;
#X connect 69 0 67 0;
#X connect 70 0 16 0;
#X connect 70 1 17 0;
#X connect 70 2 18 0;
#X connect 70 3 19 0;
#X connect 70 4 20 0;
#X restore 1085 980 pd falsePositives;
#X f 21;
#X obj 390 272 r gameon;
#X obj 390 294 sel 1;
#X floatatom 185 529 5 0 0 0 - - -;
#N canvas 0 23 450 300 trailNumber 0;
#X obj 131 41 r boot;
#X msg 131 70 0;
#X floatatom 67 145 5 0 0 0 - - -;
#X obj 67 94 bng 15 250 50 0 empty empty empty 17 7 0 10 -262144 -1
-1;
#X obj 99 119 + 1;
#X obj 67 119 i;
#X obj 67 169 s trialnr;
#X obj 67 233 outlet;
#X obj 44 36 r stopall;
#X obj 32 197 print Trial nr;
#X connect 0 0 1 0;
#X connect 1 0 5 0;
#X connect 2 0 6 0;
#X connect 2 0 7 0;
#X connect 2 0 9 0;
#X connect 3 0 5 0;
#X connect 4 0 5 1;
#X connect 5 0 2 0;
#X connect 5 0 4 0;
#X connect 8 0 3 0;
#X restore 1084 753 pd trailNumber;
#X floatatom 1084 775 5 0 0 0 - - -;
#X text 1084 1026 BLUE;
#X text 1132 1026 GREEN;
#X text 1185 1026 RED;
#X text 1226 1026 YELLOW;
#X text 1084 1117 BLUE;
#X text 1132 1117 GREEN;
#X text 1185 1117 RED;
#X text 1226 1117 YELLOW;
#X obj 29 1216 spigot;
#X obj 68 1197 tgl 15 0 empty empty empty 17 7 0 10 -262144 -1 -1 0
1;
#X obj 543 338 s printGameScores;
#X obj 543 313 bng 15 250 50 0 empty empty empty 17 7 0 10 -262144
-1 -1;
#N canvas 0 23 1222 936 gameScoreCalculator 0;
#X obj 83 81 r p1TMTotal;
#X obj 264 81 r p2TMTotal;
#X obj 438 82 r p3TMTotal;
#X obj 614 83 r p4TMTotal;
#X floatatom 83 106 5 0 0 0 - - -;
#X floatatom 264 106 5 0 0 0 - - -;
#X floatatom 438 108 5 0 0 0 - - -;
#X floatatom 614 109 5 0 0 0 - - -;
#X floatatom 175 106 5 0 0 0 - - -;
#X floatatom 349 106 5 0 0 0 - - -;
#X floatatom 525 108 5 0 0 0 - - -;
#X floatatom 702 107 5 0 0 0 - - -;
#X obj 176 81 r p1FPTotal;
#X obj 349 81 r p2FPTotal;
#X obj 525 82 r p3FPTotal;
#X obj 702 82 r p4FPTotal;
#X obj 150 161 +;
#X obj 264 158 +;
#X obj 438 160 +;
#X obj 614 160 +;
#X obj 132 364 r p1Drift;
#X obj 311 366 r p2Drift;
#X obj 489 363 r p3Drift;
#X obj 660 369 r p4Drift;
#X obj 489 395 -;
#X obj 660 397 -;
#X obj 311 393 -;
#X obj 132 394 -;
#X floatatom 172 394 5 0 0 0 - - -;
#X floatatom 346 392 5 0 0 0 - - -;
#X floatatom 524 394 5 0 0 0 - - -;
#X floatatom 700 396 5 0 0 0 - - -;
#X obj 175 133 t b f;
#X obj 124 597 print P1 (BLUE) Game Score;
#X obj 333 586 print P2 (GREEN) Game Score;
#X obj 535 555 print P3 (RED) Game Score;
#X obj 715 582 print P4 (YELLOW) Game Score;
#X obj 380 269 expr $i1 * $i5 \; $i2 * $i5 \; $i3 * $i5 \; $i4 * $i5
\;, f 17;
#X floatatom 528 253 5 0 0 0 - - -;
#X floatatom 618 397 5 0 0 0 - - -;
#X floatatom 445 396 5 0 0 0 - - -;
#X floatatom 172 427 5 0 0 0 - - -;
#X floatatom 401 374 5 0 0 0 - - -;
#X obj 380 232 bng 15 250 50 0 empty empty empty 17 7 0 10 -262144
-1 -1;
#X obj 349 131 t b b f;
#X obj 525 133 t b b f;
#X obj 702 132 t b b f;
#X text 526 275 Penalty value;
#X obj 43 419 outlet;
#X obj 221 422 outlet;
#X obj 400 426 outlet;
#X obj 573 425 outlet;
#X obj 566 25 inlet;
#X obj 548 202 r boot;
#X msg 548 227 2;
#X obj 829 52 r OSCin;
#X obj 829 83 route /game/clap/101/drift /game/clap/102/drift /game/clap/103/drift
/game/clap/104/drift;
#X obj 829 126 s p1Drift;
#X obj 910 126 s p2Drift;
#X obj 992 127 s p3Drift;
#X obj 1073 127 s p4Drift;
#X obj 427 814 s OSCout;
#X msg 132 769 /gamescore/101 \$1;
#X msg 310 767 /gamescore/102 \$1;
#X msg 490 766 /gamescore/103 \$1;
#X msg 664 767 /gamescore/104 \$1;
#X obj 132 738 i;
#X obj 310 742 i;
#X obj 490 739 i;
#X obj 664 739 i;
#X obj 400 702 bng 15 250 50 0 empty empty empty 17 7 0 10 -262144
-1 -1;
#X obj 110 428 t b f;
#X obj 124 488 i;
#X floatatom 345 420 5 0 0 0 - - -;
#X obj 321 447 t b f;
#X obj 335 507 i;
#X obj 523 441 t b f;
#X obj 537 501 i;
#X obj 700 447 t b f;
#X obj 714 507 i;
#X obj 110 448 delay 100;
#X obj 321 467 delay 200;
#X obj 523 461 delay 300;
#X obj 700 467 delay 400;
#X obj 917 555 print P1 (BLUE) Drift;
#X obj 1127 571 print P2 (GREEN) Drift;
#X obj 1332 563 print P3 (RED) Drift;
#X obj 1508 576 print P4 (YELLOW) Drift;
#X obj 903 460 t b f;
#X obj 917 520 i;
#X obj 1114 479 t b f;
#X obj 1128 539 i;
#X obj 1316 473 t b f;
#X obj 1330 533 i;
#X obj 1493 479 t b f;
#X obj 1507 539 i;
#X obj 904 424 r p1Drift;
#X obj 1113 439 r p2Drift;
#X obj 1317 432 r p3Drift;
#X obj 1490 443 r p4Drift;
#X obj 903 480 delay 500;
#X obj 1114 499 delay 600;
#X obj 1316 493 delay 700;
#X obj 1493 499 delay 800;
#X floatatom 284 291 5 0 0 0 - - -;
#X floatatom 580 338 5 0 0 0 - - -;
#X floatatom 632 311 5 0 0 0 - - -;
#X connect 0 0 4 0;
#X connect 1 0 5 0;
#X connect 2 0 6 0;
#X connect 3 0 7 0;
#X connect 4 0 16 0;
#X connect 5 0 17 0;
#X connect 6 0 18 0;
#X connect 7 0 19 0;
#X connect 8 0 32 0;
#X connect 9 0 44 0;
#X connect 10 0 45 0;
#X connect 11 0 46 0;
#X connect 12 0 8 0;
#X connect 13 0 9 0;
#X connect 14 0 10 0;
#X connect 15 0 11 0;
#X connect 16 0 37 0;
#X connect 16 0 43 0;
#X connect 17 0 37 1;
#X connect 17 0 43 0;
#X connect 18 0 37 2;
#X connect 18 0 43 0;
#X connect 19 0 37 3;
#X connect 19 0 43 0;
#X connect 20 0 27 0;
#X connect 20 0 28 0;
#X connect 21 0 26 0;
#X connect 21 0 29 0;
#X connect 22 0 24 0;
#X connect 22 0 30 0;
#X connect 23 0 25 0;
#X connect 23 0 31 0;
#X connect 24 0 40 0;
#X connect 24 0 50 0;
#X connect 24 0 68 0;
#X connect 24 0 76 0;
#X connect 25 0 39 0;
#X connect 25 0 51 0;
#X connect 25 0 69 0;
#X connect 25 0 78 0;
#X connect 26 0 49 0;
#X connect 26 0 67 0;
#X connect 26 0 74 0;
#X connect 26 0 73 0;
#X connect 27 0 48 0;
#X connect 27 0 66 0;
#X connect 27 0 71 0;
#X connect 27 0 41 0;
#X connect 32 0 16 0;
#X connect 32 1 16 1;
#X connect 37 0 27 1;
#X connect 37 0 104 0;
#X connect 37 1 26 1;
#X connect 37 1 42 0;
#X connect 37 2 24 1;
#X connect 37 2 105 0;
#X connect 37 3 25 1;
#X connect 37 3 106 0;
#X connect 38 0 37 4;
#X connect 43 0 37 0;
#X connect 43 0 38 0;
#X connect 44 0 43 0;
#X connect 44 1 17 0;
#X connect 44 2 17 1;
#X connect 45 0 43 0;
#X connect 45 1 18 0;
#X connect 45 2 18 1;
#X connect 46 0 43 0;
#X connect 46 1 19 0;
#X connect 46 2 19 1;
#X connect 52 0 38 0;
#X connect 53 0 54 0;
#X connect 54 0 38 0;
#X connect 55 0 56 0;
#X connect 56 0 57 0;
#X connect 56 1 58 0;
#X connect 56 2 59 0;
#X connect 56 3 60 0;
#X connect 62 0 61 0;
#X connect 63 0 61 0;
#X connect 64 0 61 0;
#X connect 65 0 61 0;
#X connect 66 0 62 0;
#X connect 67 0 63 0;
#X connect 68 0 64 0;
#X connect 69 0 65 0;
#X connect 70 0 66 0;
#X connect 70 0 69 0;
#X connect 70 0 68 0;
#X connect 70 0 67 0;
#X connect 71 0 80 0;
#X connect 71 1 72 1;
#X connect 72 0 33 0;
#X connect 74 0 81 0;
#X connect 74 1 75 1;
#X connect 75 0 34 0;
#X connect 76 0 82 0;
#X connect 76 1 77 1;
#X connect 77 0 35 0;
#X connect 78 0 83 0;
#X connect 78 1 79 1;
#X connect 79 0 36 0;
#X connect 80 0 72 0;
#X connect 81 0 75 0;
#X connect 82 0 77 0;
#X connect 83 0 79 0;
#X connect 88 0 100 0;
#X connect 88 1 89 1;
#X connect 89 0 84 0;
#X connect 90 0 101 0;
#X connect 90 1 91 1;
#X connect 91 0 85 0;
#X connect 92 0 102 0;
#X connect 92 1 93 1;
#X connect 93 0 86 0;
#X connect 94 0 103 0;
#X connect 94 1 95 1;
#X connect 95 0 87 0;
#X connect 96 0 88 0;
#X connect 97 0 90 0;
#X connect 98 0 92 0;
#X connect 99 0 94 0;
#X connect 100 0 89 0;
#X connect 101 0 91 0;
#X connect 102 0 93 0;
#X connect 103 0 95 0;
#X restore 1085 872 pd gameScoreCalculator;
#X floatatom 1085 894 5 0 0 0 - - -;
#X floatatom 1135 894 5 0 0 0 - - -;
#X floatatom 1185 894 5 0 0 0 - - -;
#X floatatom 1236 894 5 0 0 0 - - -;
#X text 1104 896 P1;
#X text 1154 896 P2;
#X text 1204 896 P3;
#X text 1255 896 P4;
#X text 1084 918 BLUE;
#X text 1134 918 GREEN;
#X text 1189 918 RED;
#X text 1233 918 YELLOW;
#X floatatom 1085 851 5 0 0 0 - - -;
#X text 1132 850 Penalty value;
#N canvas 0 23 773 529 (subpatch) 0;
#X array falsePositives 4 float 3;
#A 0 0 0 0 0;
#X coords 0 4 4 0 200 140 1;
#X restore 861 1001 graph;
#N canvas 0 23 773 529 (subpatch) 0;
#X array trueMisses 4 float 3;
#A 0 0 0 0 0;
#X coords 0 4 4 0 200 140 1 0 0;
#X restore 630 1000 graph;
#X text 707 765 BLUE;
#X text 934 766 GREEN;
#X text 709 935 RED;
#X text 929 938 YELLOW;
#X text 222 324 BPM;
#X obj 176 350 s gameBPM;
#N canvas 526 64 898 704 gameScoreWriter 0;
#X text 30 187 Value;
#X floatatom 78 187 5 0 100 0 - - -;
#X floatatom 229 189 5 0 17 0 - - -;
#X obj 39 339 r p1TMTotal;
#X obj 603 207 r p2TMTotal;
#X obj 777 208 r p3TMTotal;
#X obj 953 209 r p4TMTotal;
#X floatatom 603 232 5 0 0 0 - - -;
#X floatatom 777 234 5 0 0 0 - - -;
#X floatatom 953 235 5 0 0 0 - - -;
#X floatatom 688 232 5 0 0 0 - - -;
#X floatatom 864 234 5 0 0 0 - - -;
#X floatatom 1041 233 5 0 0 0 - - -;
#X obj 124 339 r p1FPTotal;
#X obj 688 207 r p2FPTotal;
#X obj 864 208 r p3FPTotal;
#X obj 1041 208 r p4FPTotal;
#X msg 603 280 p2TMs \$1;
#X msg 688 279 p2FPs \$1;
#X msg 777 279 p3TMs \$1;
#X msg 864 278 p3FPs \$1;
#X msg 953 276 p4TMs \$1;
#X msg 1042 275 p4FPs \$1;
#X msg 1072 351 clear;
#X text 1094 670 click to open and edit text:;
#X text 1329 658 creation arguments:;
#X text 1357 676 optional -k flag to keep contents;
#X text 1359 693 optional name;
#X text 1110 513 (optionally you can read or write to/from a file interpreting
carriage returns as separators \; this should allow reading some text
file formats - like this:);
#X text 1347 375 read from a file;
#X text 1349 406 write to a file;
#X text 1134 349 clear;
#X obj 1081 438 bng 15 250 50 0 empty empty empty 17 7 0 10 -262144
-1 -1;
#X obj 1071 758 t b p;
#X obj 1071 807 text get -s text t;
#X msg 1072 782 0;
#X obj 1071 857 print;
#X obj 1071 832 list trim;
#X obj 1243 724 print notify-outlet;
#X text 1118 857 First outlet is pointer to a "text" scalar containing
the text \, which is output when the object is sent a "bang". For example
\, here's machinery for printing out first line of text., f 30;
#X text 1102 432 bang to output a pointer to a scalar (struct) containing
the text - see first outlet below, f 45;
#X text 1241 749 Second outlet notifies you when text changes. As of
Pd 0.48 this only outputs the message "updated" when text changes \,
but this might be extended to offer more information in the future.
, f 42;
#X msg 1112 621 click;
#X msg 1160 621 close;
#X text 1208 621 open and close text window;
#X text 1269 480 send pointer to a named receive object;
#X floatatom 1147 765 5 0 0 0 - - -;
#X obj 1071 694 text define -k gameerrors;
#A set;
#X obj 1084 726 r gameerrorscorefile;
#X msg 1092 480 send gameerrorscorefile;
#X msg 1070 377 read ./scores/gameerrorscorefile.txt;
#X msg 1073 406 write ./scores/gameerrorscorefile.txt;
#X msg 1112 581 write -c ./scores/gameerrorscorefile.txt;
#X floatatom 604 57 5 0 0 0 - - -;
#X floatatom 652 57 5 0 0 0 - - -;
#X floatatom 700 57 5 0 0 0 - - -;
#X floatatom 748 57 5 0 0 0 - - -;
#X text 623 59 P1;
#X text 671 59 P2;
#X text 719 59 P3;
#X text 767 59 P4;
#X text 603 81 BLUE;
#X text 651 81 GREEN;
#X text 704 81 RED;
#X text 745 81 YELLOW;
#X obj 78 213 tabwrite trueMisses, f 22;
#X text 313 190 Value;
#X floatatom 361 190 5 0 100 0 - - -;
#X floatatom 519 191 5 0 17 0 - - -;
#X obj 361 216 tabwrite falsePositives;
#X text 425 192 Player Index;
#X text 134 188 Player Index;
#X floatatom 39 365 5 0 0 0 - - -;
#X floatatom 124 365 5 0 0 0 - - -;
#X obj 39 448 pack f f f;
#X obj 270 122 unpack f f f;
#X msg 106 424 0;
#X obj 124 390 t b b f;
#X obj 39 391 t f b;
#X text 138 422 Player 1 BLUE;
#X obj 39 483 s p1packedscore;
#X obj 182 70 r p1packedscore;
#X floatatom 261 366 5 0 0 0 - - -;
#X floatatom 346 366 5 0 0 0 - - -;
#X obj 261 449 pack f f f;
#X obj 346 391 t b b f;
#X obj 261 392 t f b;
#X msg 328 425 1;
#X text 360 423 Player 2 GREEN;
#X obj 261 484 s p2packedscore;
#X floatatom 492 367 5 0 0 0 - - -;
#X floatatom 577 367 5 0 0 0 - - -;
#X obj 492 450 pack f f f;
#X obj 577 392 t b b f;
#X obj 492 393 t f b;
#X obj 261 340 r p2TMTotal;
#X obj 346 340 r p2FPTotal;
#X obj 577 341 r p3FPTotal;
#X obj 492 341 r p3TMTotal;
#X text 591 424 Player 3 RED;
#X obj 492 485 s p3packedscore;
#X floatatom 716 367 5 0 0 0 - - -;
#X floatatom 801 367 5 0 0 0 - - -;
#X obj 716 450 pack f f f;
#X obj 801 392 t b b f;
#X obj 716 393 t f b;
#X obj 716 341 r p4TMTotal;
#X obj 801 341 r p4FPTotal;
#X text 815 424 Player 4 YELLOW;
#X obj 716 485 s p4packedscore;
#X obj 193 94 r p2packedscore;
#X obj 297 69 r p3packedscore;
#X obj 308 93 r p4packedscore;
#X msg 559 426 2;
#X msg 783 426 3;
#X connect 1 0 65 0;
#X connect 2 0 65 1;
#X connect 3 0 72 0;
#X connect 4 0 7 0;
#X connect 5 0 8 0;
#X connect 6 0 9 0;
#X connect 7 0 17 0;
#X connect 8 0 19 0;
#X connect 9 0 21 0;
#X connect 10 0 18 0;
#X connect 11 0 20 0;
#X connect 12 0 22 0;
#X connect 13 0 73 0;
#X connect 14 0 10 0;
#X connect 15 0 11 0;
#X connect 16 0 12 0;
#X connect 23 0 47 0;
#X connect 32 0 47 0;
#X connect 33 0 35 0;
#X connect 33 1 34 3;
#X connect 34 0 37 0;
#X connect 35 0 34 0;
#X connect 37 0 36 0;
#X connect 42 0 47 0;
#X connect 43 0 47 0;
#X connect 46 0 34 0;
#X connect 47 0 33 0;
#X connect 47 1 38 0;
#X connect 48 0 33 0;
#X connect 49 0 47 0;
#X connect 50 0 47 0;
#X connect 51 0 47 0;
#X connect 52 0 47 0;
#X connect 67 0 69 0;
#X connect 68 0 69 1;
#X connect 72 0 78 0;
#X connect 73 0 77 0;
#X connect 74 0 80 0;
#X connect 75 0 1 0;
#X connect 75 1 67 0;
#X connect 75 2 2 0;
#X connect 75 2 68 0;
#X connect 76 0 74 2;
#X connect 77 0 74 0;
#X connect 77 1 76 0;
#X connect 77 2 74 1;
#X connect 78 0 74 0;
#X connect 78 1 76 0;
#X connect 81 0 75 0;
#X connect 82 0 86 0;
#X connect 83 0 85 0;
#X connect 84 0 89 0;
#X connect 85 0 84 0;
#X connect 85 1 87 0;
#X connect 85 2 84 1;
#X connect 86 0 84 0;
#X connect 86 1 87 0;
#X connect 87 0 84 2;
#X connect 90 0 94 0;
#X connect 91 0 93 0;
#X connect 92 0 100 0;
#X connect 93 0 92 0;
#X connect 93 1 113 0;
#X connect 93 2 92 1;
#X connect 94 0 92 0;
#X connect 94 1 113 0;
#X connect 95 0 82 0;
#X connect 96 0 83 0;
#X connect 97 0 91 0;
#X connect 98 0 90 0;
#X connect 101 0 105 0;
#X connect 102 0 104 0;
#X connect 103 0 109 0;
#X connect 104 0 103 0;
#X connect 104 1 114 0;
#X connect 104 2 103 1;
#X connect 105 0 103 0;
#X connect 105 1 114 0;
#X connect 106 0 101 0;
#X connect 107 0 102 0;
#X connect 110 0 75 0;
#X connect 111 0 75 0;
#X connect 112 0 75 0;
#X connect 113 0 92 2;
#X connect 114 0 103 2;
#X restore 681 338 pd gameScoreWriter;
#N canvas 0 23 450 300 gamemode 0;
#X obj 76 100 sel 0 1 2;
#X floatatom 76 76 5 0 0 0 - - -;
#X obj 76 25 r OSCin;
#X obj 76 49 route /gametype;
#X msg 96 149 Rhythm game;
#X msg 76 170 Pre test;
#X msg 116 128 Post test;
#X obj 116 197 print Mode;
#X obj 154 100 s gameMode;
#X obj 201 49 r boot;
#X msg 45 227 outlet;
#X connect 0 0 5 0;
#X connect 0 1 4 0;
#X connect 0 2 6 0;
#X connect 1 0 0 0;
#X connect 1 0 8 0;
#X connect 1 0 10 0;
#X connect 2 0 3 0;
#X connect 3 0 1 0;
#X connect 4 0 7 0;
#X connect 5 0 7 0;
#X connect 6 0 7 0;
#X connect 9 0 1 0;
#X restore 543 279 pd gamemode;
#X msg 28 268 90;
#X obj 916 52 bng 15 250 50 0 empty empty empty 17 7 0 10 -262144 -1
-1;
#X floatatom 916 109 5 0 0 0 - - -;
#X obj 955 51 bng 15 250 50 0 empty empty empty 17 7 0 10 -262144 -1
-1;
#X obj 916 78 rk_cup;
#N canvas 486 178 925 660 gameLength_Control 0;
#X obj 386 151 metro;
#X obj 386 131 tgl 15 0 empty empty empty 17 7 0 10 -262144 -1 -1 0
1;
#X obj 386 174 bng 20 250 50 0 empty empty empty 17 7 0 10 -262144
-258113 -1;
#X obj 386 197 f;
#X obj 431 196 + 1;
#X obj 239 326 sel \$1;
#X msg 386 447 /game \$1;
#X obj 386 496 s OSCout;
#X obj 278 202 r boot;
#X floatatom 386 252 5 1 16 0 - - -;
#X obj 220 356 bng 15 250 50 0 empty empty empty 17 7 0 10 -262144
-1 -1;
#X msg 239 354 0;
#X msg 386 306 1, f 2;
#X obj 386 222 + 1;
#X msg 344 132 -1;
#X obj 414 307 bng 15 250 50 0 empty empty empty 17 7 0 10 -262144
-1 -1;
#X text 302 15 Set game length in beats;
#X obj 418 120 r metroms;
#X obj 345 101 t f f;
#X obj 651 218 f;
#X obj 696 217 + 1;
#X floatatom 651 267 5 0 0 0 - - -;
#X obj 651 243 + 1;
#X obj 650 50 r OSCin;
#X msg 682 152 -1;
#X obj 650 151 tgl 15 0 empty empty empty 17 7 0 10 -262144 -1 -1 0
1;
#X obj 650 194 metro;
#X obj 661 377 s audiometronome;
#X obj 650 75 route /start/all;
#X obj 650 97 tgl 15 0 empty empty empty 17 7 0 10 -262144 -1 -1 0
1;
#X obj 671 351 s gameon;
#X obj 345 57 r gameon;
#X obj 345 83 tgl 15 0 empty empty empty 17 7 0 10 -262144 -1 -1 0
1;
#X obj 505 15 r stopall;
#X obj 650 115 t f b;
#X obj 651 402 s metroon;
#X obj 239 404 s stopall;
#X obj 386 414 f;
#X obj 239 378 delay 400;
#X text 138 171 Game length in beats;
#X obj 137 249 s gamelength;
#X obj 470 194 r gamelength;
#X msg 470 396 0;
#X msg 671 326 1;
#X obj 480 423 s gameon;
#X msg 470 449 /start/all \$1;
#X obj 137 200 inlet;
#X floatatom 137 227 5 16 32 0 - - -;
#X msg 278 232 32;
#X obj 431 221 mod 32;
#X obj 386 277 sel 0 1 32;
#X obj 470 348 bng 15 250 50 0 empty empty empty 17 7 0 10 -262144
-1 -1;
#X obj 651 301 sel 1 5 6;
#X obj 470 317 sel 1;
#X obj 502 221 - 1;
#X obj 470 294 == 31;
#X obj 530 315 r metroms;
#X obj 470 370 delay 300;
#X obj 530 341 - 30;
#X obj 479 479 s stopall;
#X obj 137 281 print Bars of fun;
#X obj 696 186 r metroms;
#X connect 0 0 2 0;
#X connect 1 0 0 0;
#X connect 2 0 3 0;
#X connect 3 0 4 0;
#X connect 3 0 13 0;
#X connect 4 0 49 0;
#X connect 5 0 11 0;
#X connect 5 0 10 0;
#X connect 6 0 7 0;
#X connect 8 0 48 0;
#X connect 9 0 5 0;
#X connect 9 0 50 0;
#X connect 11 0 38 0;
#X connect 12 0 37 0;
#X connect 13 0 9 0;
#X connect 14 0 3 0;
#X connect 17 0 0 1;
#X connect 18 0 1 0;
#X connect 18 1 14 0;
#X connect 19 0 20 0;
#X connect 19 0 22 0;
#X connect 20 0 19 1;
#X connect 21 0 52 0;
#X connect 22 0 21 0;
#X connect 23 0 28 0;
#X connect 24 0 19 1;
#X connect 25 0 26 0;
#X connect 26 0 19 0;
#X connect 28 0 29 0;
#X connect 29 0 34 0;
#X connect 31 0 32 0;
#X connect 32 0 18 0;
#X connect 33 0 32 0;
#X connect 33 0 29 0;
#X connect 34 0 25 0;
#X connect 34 1 24 0;
#X connect 37 0 6 0;
#X connect 38 0 36 0;
#X connect 41 0 49 1;
#X connect 41 0 54 0;
#X connect 42 0 44 0;
#X connect 42 0 37 0;
#X connect 42 0 45 0;
#X connect 42 0 59 0;
#X connect 43 0 30 0;
#X connect 45 0 7 0;
#X connect 46 0 47 0;
#X connect 47 0 40 0;
#X connect 47 0 5 1;
#X connect 47 0 60 0;
#X connect 48 0 5 1;
#X connect 48 0 40 0;
#X connect 48 0 60 0;
#X connect 49 0 3 1;
#X connect 50 1 12 0;
#X connect 50 1 15 0;
#X connect 50 3 55 0;
#X connect 51 0 57 0;
#X connect 52 0 27 0;
#X connect 52 0 35 0;
#X connect 52 1 43 0;
#X connect 52 2 34 0;
#X connect 53 0 51 0;
#X connect 54 0 55 1;
#X connect 55 0 53 0;
#X connect 56 0 58 0;
#X connect 57 0 42 0;
#X connect 58 0 57 1;
#X connect 61 0 26 1;
#X restore 1084 696 pd gameLength_Control;
#X text 1082 653 Game length in beats;
#X text 1084 823 Adjusted Final Game Score;
#X text 635 1117 BLUE;
#X text 683 1117 GREEN;
#X text 736 1117 RED;
#X text 777 1117 YELLOW;
#X text 870 1117 BLUE;
#X text 918 1117 GREEN;
#X text 971 1117 RED;
#X text 1012 1117 YELLOW;
#X text 860 1037 False positives \; you should NOT have clapped!;
#X text 649 1036 True misses \; you should've clapped!;
#X connect 0 0 11 0;
#X connect 1 0 29 0;
#X connect 1 0 129 0;
#X connect 3 0 68 0;
#X connect 3 0 52 0;
#X connect 5 0 6 0;
#X connect 6 0 34 0;
#X connect 7 0 4 0;
#X connect 10 0 11 0;
#X connect 11 0 9 0;
#X connect 12 0 21 0;
#X connect 12 0 103 0;
#X connect 14 0 26 0;
#X connect 15 0 23 0;
#X connect 16 0 132 0;
#X connect 17 0 67 0;
#X connect 18 0 7 0;
#X connect 24 0 10 0;
#X connect 26 0 27 0;
#X connect 27 0 129 0;
#X connect 28 0 0 0;
#X connect 29 0 30 0;
#X connect 30 0 15 0;
#X connect 30 0 31 0;
#X connect 33 0 36 0;
#X connect 38 0 14 0;
#X connect 39 0 8 0;
#X connect 42 0 33 0;
#X connect 43 0 44 0;
#X connect 44 0 36 0;
#X connect 45 0 46 0;
#X connect 46 0 42 0;
#X connect 47 0 1 0;
#X connect 48 0 42 0;
#X connect 50 0 52 0;
#X connect 62 0 61 0;
#X connect 64 0 137 0;
#X connect 66 0 1 0;
#X connect 67 0 11 0;
#X connect 68 0 49 0;
#X connect 69 0 2 0;
#X connect 69 0 2 1;
#X connect 70 0 69 1;
#X connect 88 0 80 0;
#X connect 88 1 81 0;
#X connect 88 2 82 0;
#X connect 88 3 83 0;
#X connect 89 0 72 0;
#X connect 89 1 73 0;
#X connect 89 2 74 0;
#X connect 89 3 75 0;
#X connect 90 0 91 0;
#X connect 91 0 62 0;
#X connect 92 0 69 0;
#X connect 93 0 94 0;
#X connect 103 0 25 0;
#X connect 104 0 103 1;
#X connect 106 0 105 0;
#X connect 107 0 108 0;
#X connect 107 1 109 0;
#X connect 107 2 110 0;
#X connect 107 3 111 0;
#X connect 120 0 107 0;
#X connect 132 0 1 0;
#X connect 133 0 136 0;
#X connect 135 0 136 1;
#X connect 136 0 134 0;
