#N canvas 0 23 450 300 10;
#X obj 40 130 f;
#X obj 85 129 + 1;
#X obj 40 155 + 1;
#X msg 72 82 -1;
#X obj 40 85 tgl 15 0 empty empty empty 17 7 0 10 -262144 -1 -1 0 1
;
#X obj 40 106 metro;
#X obj 40 41 tgl 15 0 empty empty empty 17 7 0 10 -262144 -1 -1 0 1
;
#X obj 40 59 t f b;
#X obj 108 89 r metroms;
#X obj 40 17 r gameon;
#X obj 40 186 outlet;
#X connect 0 0 1 0;
#X connect 0 0 2 0;
#X connect 1 0 0 1;
#X connect 2 0 10 0;
#X connect 3 0 0 1;
#X connect 4 0 5 0;
#X connect 5 0 0 0;
#X connect 6 0 7 0;
#X connect 7 0 4 0;
#X connect 7 1 3 0;
#X connect 8 0 5 1;
#X connect 9 0 6 0;
