#N canvas 239 144 759 631 10;
#X obj 41 386 outlet;
#X obj 81 386 outlet;
#X obj 121 386 outlet;
#X obj 161 386 outlet;
#X obj 201 386 outlet;
#X floatatom 61 258 5 0 6 0 - - -;
#X obj 75 77 r metroms;
#X obj 34 278 i;
#X obj 34 233 t b f;
#X floatatom 34 211 5 1 6 0 - - -;
#X obj 54 30 r OSCin;
#X obj 54 50 route /player;
#X obj 34 6 inlet;
#X obj 116 160 r stopall;
#X msg 116 189 0;
#X obj 34 300 expr if($i1 == 1 \, 1 \, 0) \; if($i1 == 2 \, 1 \, 0)
\; if($i1 == 3 \, 1 \, 0) \; if($i1 == 4 \, 1 \, 0) \; if($i1 == 5
\, 1 \, 0) \; if($i1 == 6 \, 0 \, 0) \;;
#X floatatom 34 415 5 0 0 0 - - -;
#X floatatom 68 415 5 0 0 0 - - -;
#X floatatom 102 415 5 0 0 0 - - -;
#X floatatom 136 415 5 0 0 0 - - -;
#X floatatom 170 415 5 0 0 0 - - -;
#X floatatom 204 415 5 0 0 0 - - -;
#X obj 54 121 pipe;
#X msg 54 189 clear;
#X obj 54 167 bng 15 250 50 0 empty empty empty 17 7 0 10 -262144 -1
-1;
#X floatatom 158 67 5 0 0 0 - - -;
#X msg 150 213;
#X msg 150 234 add2 \$1;
#X msg 150 254 4;
#X msg 115 213 set;
#X msg 150 189 add2 \$1;
#X obj 75 100 / 2;
#X floatatom 102 100 5 0 0 0 - - -;
#X floatatom 103 120 5 0 0 0 - - -;
#X text 142 121 Delay with half a beat to adjust evaluation window
;
#X connect 5 0 7 1;
#X connect 6 0 31 0;
#X connect 6 0 32 0;
#X connect 7 0 15 0;
#X connect 8 0 7 0;
#X connect 8 1 5 0;
#X connect 9 0 8 0;
#X connect 10 0 11 0;
#X connect 11 0 22 0;
#X connect 11 0 25 0;
#X connect 12 0 9 0;
#X connect 13 0 14 0;
#X connect 13 0 24 0;
#X connect 14 0 7 0;
#X connect 15 0 0 0;
#X connect 15 0 16 0;
#X connect 15 1 1 0;
#X connect 15 1 17 0;
#X connect 15 2 2 0;
#X connect 15 2 18 0;
#X connect 15 3 3 0;
#X connect 15 3 19 0;
#X connect 15 4 4 0;
#X connect 15 4 20 0;
#X connect 15 5 21 0;
#X connect 22 0 9 0;
#X connect 22 0 27 0;
#X connect 23 0 22 0;
#X connect 24 0 23 0;
#X connect 24 0 29 0;
#X connect 27 0 28 0;
#X connect 29 0 28 0;
#X connect 29 0 26 0;
#X connect 30 0 26 0;
#X connect 31 0 22 1;
#X connect 31 0 33 0;
