#N canvas 430 68 409 338 10;
#X msg 43 141 \; \$1 xticks 0 1 4;
#X msg 43 173 \; \$1 yticks 0 25 1;
#X msg 43 245 \; \$1 ylabel -0.1 0 25 50 75 100;
#X obj 16 8 inlet symbol;
#X obj 16 40 t s s;
#X msg 16 71 \; \$1 resize 33;
#X msg 43 107 \; \$1 bounds 0 100 32 0;
#X msg 43 208 \; \$1 xlabel -0.1 0 4 8 12 16 20 24 28 32;
#X connect 3 0 4 0;
#X connect 4 0 5 0;
#X connect 4 1 6 0;
#X connect 4 1 2 0;
#X connect 4 1 7 0;
#X connect 4 1 1 0;
#X connect 4 1 0 0;
